# This file uses centimeters as units for non-parametric coordinates.

mtllib Rune3.mtl
g default
v 1.187577 -0.206667 -0.383646
v 1.010028 -0.206667 -0.732106
v 0.733488 -0.206667 -1.008646
v 0.385027 -0.206667 -1.186196
v -0.001244 -0.206667 -1.247375
v -0.387516 -0.206667 -1.186195
v -0.735976 -0.206667 -1.008646
v -1.012516 -0.206667 -0.732106
v -1.190065 -0.206667 -0.383646
v -1.251245 -0.206667 0.002626
v -1.190065 -0.206667 0.388897
v -1.012516 -0.206667 0.737357
v -0.735976 -0.206667 1.013897
v -0.387516 -0.206667 1.191447
v -0.001244 -0.206667 1.252626
v 0.385027 -0.206667 1.191446
v 0.733487 -0.206667 1.013897
v 1.010027 -0.206667 0.737357
v 1.187576 -0.206667 0.388897
v 1.248756 -0.206667 0.002626
v 1.187577 0.206667 -0.383646
v 1.010028 0.206667 -0.732106
v 0.733488 0.206667 -1.008646
v 0.385027 0.206667 -1.186196
v -0.001244 0.206667 -1.247375
v -0.387516 0.206667 -1.186195
v -0.735976 0.206667 -1.008646
v -1.012516 0.206667 -0.732106
v -1.190065 0.206667 -0.383646
v -1.251245 0.206667 0.002626
v -1.190065 0.206667 0.388897
v -1.012516 0.206667 0.737357
v -0.735976 0.206667 1.013897
v -0.387516 0.206667 1.191447
v -0.001244 0.206667 1.252626
v 0.385027 0.206667 1.191446
v 0.733487 0.206667 1.013897
v 1.010027 0.206667 0.737357
v 1.187576 0.206667 0.388897
v 1.248756 0.206667 0.002626
v -0.001244 -0.206667 0.002626
v -0.001244 0.206667 0.002626
v 0.214438 0.116975 0.948844
v 0.711722 0.116975 0.948844
v 0.214438 0.393025 0.948844
v 0.711722 0.393025 0.948844
v 0.214438 0.393025 0.845141
v 0.711722 0.393025 0.845141
v 0.214438 0.116975 0.845141
v 0.711722 0.116975 0.845141
v 0.587355 0.392794 0.845344
v 0.587276 0.116744 0.845344
v 0.587392 0.116975 0.948844
v 0.587392 0.393025 0.948844
v 0.336490 0.392794 0.845344
v 0.336490 0.116744 0.845344
v 0.336533 0.116975 0.948844
v 0.336533 0.393025 0.948844
v 0.336447 0.392563 -0.578269
v 0.587162 0.392563 -0.578269
v 0.336447 0.116514 -0.578269
v 0.587162 0.116514 -0.578269
v 0.273551 0.392563 -0.690583
v 0.524266 0.392563 -0.690583
v 0.524266 0.116514 -0.690583
v 0.273551 0.116514 -0.690583
v 0.264327 0.392563 -0.852315
v 0.398712 0.392563 -0.852315
v 0.398712 0.116514 -0.852315
v 0.264327 0.116514 -0.852315
v 0.152044 0.392563 -0.691942
v 0.152044 0.116514 -0.691942
v 0.117957 0.392563 -0.856436
v 0.117957 0.116514 -0.856436
v 0.044627 0.392563 -0.575224
v 0.044627 0.116514 -0.575224
v -0.061611 0.392563 -0.707257
v -0.061611 0.116514 -0.707257
v -0.163828 0.392563 -0.575224
v -0.163828 0.116514 -0.575224
v 0.044627 0.392563 -0.069870
v 0.044627 0.116514 -0.069870
v -0.163828 0.392563 -0.069870
v -0.163828 0.116514 -0.069870
v -0.137268 0.392563 -0.816014
v -0.137268 0.116514 -0.816014
v -0.237120 0.116514 -0.672159
v -0.237120 0.392563 -0.672159
v -0.239132 0.392563 -0.840477
v -0.239132 0.116514 -0.840477
v -0.260551 0.116514 -0.673927
v -0.260551 0.392563 -0.673927
v -0.399252 0.392563 -0.837043
v -0.399252 0.116514 -0.837043
v -0.367113 0.116514 -0.675620
v -0.367113 0.392563 -0.675620
v -0.545835 0.392563 -0.690459
v -0.545835 0.116514 -0.690459
v -0.459396 0.116514 -0.552100
v -0.459396 0.392563 -0.552100
v -0.645842 0.392563 -0.552100
v -0.645842 0.116514 -0.552100
v -0.645842 0.392563 -0.069870
v -0.645842 0.116514 -0.069870
v -0.459396 0.116514 -0.069870
v -0.459396 0.392563 -0.069870
v -0.631104 0.392563 -0.773036
v -0.631104 0.116514 -0.773036
v -0.722219 0.116514 -0.646976
v -0.722219 0.392563 -0.646976
v -0.731705 0.392563 -0.797106
v -0.731705 0.116514 -0.797106
v -0.731436 0.116514 -0.657118
v -0.731436 0.392563 -0.657118
v -0.899925 0.392563 -0.724721
v -0.899925 0.116514 -0.724721
v -0.871853 0.116514 -0.643418
v -0.871853 0.392563 -0.643418
v -0.942339 0.392563 -0.593231
v -0.942339 0.116514 -0.593231
v -0.918617 0.116514 -0.524530
v -0.918617 0.392563 -0.524530
vt 0.897546 0.438653
vt 0.875919 0.396207
vt 0.842235 0.362523
vt 0.799789 0.340896
vt 0.752739 0.333444
vt 0.705688 0.340896
vt 0.663243 0.362523
vt 0.629558 0.396207
vt 0.607932 0.438653
vt 0.600479 0.485703
vt 0.607932 0.532754
vt 0.629558 0.575199
vt 0.663243 0.608884
vt 0.705688 0.630511
vt 0.752739 0.637963
vt 0.799789 0.630511
vt 0.842235 0.608884
vt 0.875919 0.575199
vt 0.897546 0.532754
vt 0.904998 0.485703
vt 0.920221 0.977446
vt 0.920136 0.929892
vt 0.920051 0.882338
vt 0.919965 0.834785
vt 0.919880 0.787231
vt 0.919795 0.739677
vt 0.919710 0.692123
vt 0.919624 0.644569
vt 0.919539 0.597016
vt 0.919454 0.549462
vt 0.919368 0.501908
vt 0.919283 0.454354
vt 0.919198 0.406801
vt 0.919112 0.359247
vt 0.919027 0.311693
vt 0.918942 0.264139
vt 0.918857 0.216586
vt 0.918771 0.169032
vt 0.918686 0.121478
vt 0.918601 0.073924
vt 0.918515 0.026371
vt 0.970480 0.977356
vt 0.970395 0.929802
vt 0.970310 0.882248
vt 0.970224 0.834695
vt 0.970139 0.787140
vt 0.970054 0.739587
vt 0.969968 0.692033
vt 0.969883 0.644479
vt 0.969798 0.596926
vt 0.969712 0.549372
vt 0.969627 0.501818
vt 0.969542 0.454264
vt 0.969457 0.406711
vt 0.969371 0.359157
vt 0.969286 0.311603
vt 0.969201 0.264049
vt 0.969115 0.216496
vt 0.969030 0.168942
vt 0.968945 0.121388
vt 0.968859 0.073834
vt 0.968774 0.026281
vt 0.897546 0.764678
vt 0.875919 0.722233
vt 0.842235 0.688549
vt 0.799789 0.666922
vt 0.752739 0.659470
vt 0.705688 0.666922
vt 0.663243 0.688549
vt 0.629558 0.722233
vt 0.607932 0.764678
vt 0.600479 0.811729
vt 0.607932 0.858780
vt 0.629558 0.901225
vt 0.663243 0.934910
vt 0.705688 0.956537
vt 0.752739 0.963989
vt 0.799789 0.956537
vt 0.842235 0.934910
vt 0.875919 0.901225
vt 0.897546 0.858780
vt 0.904998 0.811729
vt 0.752739 0.479613
vt 0.752739 0.805639
vt 0.163842 0.338905
vt 0.163939 0.323840
vt 0.198000 0.324059
vt 0.197903 0.339124
vt 0.212504 0.060599
vt 0.224492 0.060740
vt 0.224368 0.070903
vt 0.212384 0.070781
vt 0.197821 0.351920
vt 0.197695 0.366979
vt 0.163634 0.366761
vt 0.163759 0.351701
vt 0.126431 0.284266
vt 0.113958 0.284233
vt 0.113964 0.273656
vt 0.126441 0.273668
vt 0.164236 0.277546
vt 0.164319 0.264751
vt 0.198380 0.264970
vt 0.198297 0.277765
vt 0.198450 0.249624
vt 0.164389 0.249395
vt 0.088328 0.273629
vt 0.088329 0.284207
vt 0.075611 0.284214
vt 0.075622 0.273616
vt 0.198199 0.293106
vt 0.164138 0.292887
vt 0.249000 0.071192
vt 0.249123 0.061030
vt 0.261331 0.061173
vt 0.261211 0.071356
vt 0.247337 0.210975
vt 0.222720 0.210685
vt 0.270132 0.282971
vt 0.270685 0.267220
vt 0.303253 0.268079
vt 0.302703 0.284041
vt 0.113813 0.429717
vt 0.088192 0.429691
vt 0.303911 0.060395
vt 0.303965 0.228354
vt 0.271407 0.228270
vt 0.271356 0.060399
vt 0.217996 0.419827
vt 0.218172 0.241736
vt 0.252700 0.241770
vt 0.252525 0.419860
vt 0.241032 0.221930
vt 0.216414 0.221640
vt 0.303833 0.243728
vt 0.271271 0.243263
vt 0.120229 0.441202
vt 0.094608 0.441176
vt 0.348528 0.477969
vt 0.316021 0.477850
vt 0.316077 0.462691
vt 0.348583 0.462811
vt 0.228517 0.237665
vt 0.215322 0.237510
vt 0.121155 0.457731
vt 0.107422 0.457717
vt 0.348923 0.370316
vt 0.316416 0.370196
vt 0.316506 0.345649
vt 0.349013 0.345769
vt 0.316129 0.448383
vt 0.348636 0.448503
vt 0.200945 0.237745
vt 0.204482 0.221633
vt 0.302031 0.301366
vt 0.269460 0.300200
vt 0.132646 0.441353
vt 0.136113 0.458167
vt 0.316198 0.429704
vt 0.348704 0.429823
vt 0.183486 0.222890
vt 0.194070 0.210049
vt 0.301018 0.328919
vt 0.268450 0.327736
vt 0.143636 0.429437
vt 0.154479 0.442941
vt 0.173602 0.209808
vt 0.317188 0.159618
vt 0.349695 0.159737
vt 0.349615 0.181692
vt 0.317108 0.181573
vt 0.164939 0.429458
vt 0.174186 0.160188
vt 0.194654 0.160429
vt 0.316724 0.286142
vt 0.349231 0.286261
vt 0.143689 0.377793
vt 0.164991 0.377814
vt 0.300468 0.344559
vt 0.267899 0.343358
vt 0.172419 0.439372
vt 0.162199 0.454063
vt 0.316777 0.271832
vt 0.349283 0.271951
vt 0.175932 0.233482
vt 0.166294 0.219241
vt 0.299996 0.356926
vt 0.267425 0.355712
vt 0.174813 0.439555
vt 0.172607 0.456574
vt 0.316787 0.269065
vt 0.349293 0.269184
vt 0.165902 0.235766
vt 0.163991 0.219388
vt 0.299273 0.375805
vt 0.266703 0.374625
vt 0.185703 0.439740
vt 0.188970 0.456239
vt 0.316833 0.256515
vt 0.349339 0.256634
vt 0.150184 0.235244
vt 0.153526 0.219431
vt 0.298410 0.400232
vt 0.265841 0.399117
vt 0.195146 0.427126
vt 0.203966 0.441275
vt 0.316900 0.238358
vt 0.349406 0.238478
vt 0.135960 0.220682
vt 0.144607 0.207196
vt 0.263906 0.463428
vt 0.296469 0.464149
vt 0.296326 0.472707
vt 0.263764 0.472017
vt 0.214200 0.427146
vt 0.126300 0.206981
vt 0.317397 0.102832
vt 0.349903 0.102951
vt 0.195197 0.377845
vt 0.214250 0.377865
vt 0.126857 0.159632
vt 0.145164 0.159847
vt 0.297934 0.414219
vt 0.265364 0.413140
vt 0.221995 0.436849
vt 0.212671 0.449722
vt 0.317449 0.088490
vt 0.349956 0.088609
vt 0.127492 0.228691
vt 0.118691 0.216208
vt 0.297500 0.426394
vt 0.264930 0.425375
vt 0.222936 0.437887
vt 0.222949 0.452193
vt 0.317455 0.086876
vt 0.349962 0.086995
vt 0.117587 0.230938
vt 0.117775 0.217194
vt 0.296828 0.447915
vt 0.264262 0.447064
vt 0.237287 0.436501
vt 0.240148 0.444813
vt 0.317516 0.070262
vt 0.350023 0.070381
vt 0.101153 0.223637
vt 0.104003 0.215686
vt 0.242079 0.424357
vt 0.244496 0.431380
vt 0.317571 0.055219
vt 0.350078 0.055338
vt 0.097140 0.210677
vt 0.099549 0.203959
vn 0.951057 0.000000 -0.309016
vn 0.809017 0.000000 -0.587785
vn 0.809017 0.000000 -0.587785
vn 0.951057 0.000000 -0.309016
vn 0.587785 0.000000 -0.809017
vn 0.587785 0.000000 -0.809017
vn 0.309017 0.000000 -0.951057
vn 0.309017 0.000000 -0.951057
vn -0.000000 0.000000 -1.000000
vn -0.000000 0.000000 -1.000000
vn -0.309017 0.000000 -0.951057
vn -0.309017 0.000000 -0.951057
vn -0.587785 0.000000 -0.809017
vn -0.587785 0.000000 -0.809017
vn -0.809017 0.000000 -0.587785
vn -0.809017 0.000000 -0.587785
vn -0.951057 0.000000 -0.309017
vn -0.951057 0.000000 -0.309017
vn -1.000000 0.000000 0.000000
vn -1.000000 0.000000 0.000000
vn -0.951056 0.000000 0.309017
vn -0.951056 0.000000 0.309017
vn -0.809017 0.000000 0.587785
vn -0.809017 0.000000 0.587785
vn -0.587785 0.000000 0.809017
vn -0.587785 0.000000 0.809017
vn -0.309017 0.000000 0.951056
vn -0.309017 0.000000 0.951056
vn 0.000000 0.000000 1.000000
vn 0.000000 0.000000 1.000000
vn 0.309017 0.000000 0.951056
vn 0.309017 0.000000 0.951056
vn 0.587785 0.000000 0.809017
vn 0.587785 0.000000 0.809017
vn 0.809017 0.000000 0.587785
vn 0.809017 0.000000 0.587785
vn 0.951056 0.000000 0.309017
vn 0.951056 0.000000 0.309017
vn 1.000000 0.000000 0.000001
vn 1.000000 0.000000 0.000001
vn 0.000000 -1.000000 -0.000000
vn 0.000000 -1.000000 0.000000
vn 0.000000 -1.000000 -0.000000
vn 0.000000 -1.000000 -0.000000
vn 0.000000 -1.000000 -0.000000
vn 0.000000 -1.000000 0.000000
vn 0.000000 -1.000000 0.000000
vn 0.000000 -1.000000 0.000000
vn 0.000000 -1.000000 0.000000
vn 0.000000 -1.000000 0.000000
vn 0.000000 -1.000000 -0.000000
vn 0.000000 -1.000000 -0.000000
vn 0.000000 -1.000000 -0.000000
vn 0.000000 -1.000000 -0.000000
vn 0.000000 -1.000000 -0.000000
vn 0.000000 -1.000000 -0.000000
vn 0.000000 -1.000000 0.000000
vn 0.000000 -1.000000 0.000000
vn 0.000000 -1.000000 0.000000
vn 0.000000 -1.000000 0.000000
vn 0.000000 -1.000000 0.000000
vn 0.000000 1.000000 -0.000000
vn 0.000000 1.000000 0.000000
vn 0.000000 1.000000 -0.000000
vn 0.000000 1.000000 -0.000000
vn 0.000000 1.000000 -0.000000
vn 0.000000 1.000000 0.000000
vn 0.000000 1.000000 0.000000
vn 0.000000 1.000000 0.000000
vn 0.000000 1.000000 0.000000
vn 0.000000 1.000000 0.000000
vn 0.000000 1.000000 0.000000
vn 0.000000 1.000000 0.000000
vn 0.000000 1.000000 -0.000000
vn 0.000000 1.000000 -0.000000
vn 0.000000 1.000000 0.000000
vn 0.000000 1.000000 0.000000
vn 0.000000 1.000000 0.000000
vn 0.000000 1.000000 0.000000
vn 0.000000 1.000000 0.000000
vn 0.000000 1.000000 0.000000
vn 0.000000 1.000000 -0.000000
vn 0.000000 0.000000 1.000000
vn 0.000000 0.000000 1.000000
vn 0.000000 0.000000 1.000000
vn 0.000000 0.000000 1.000000
vn 0.000946 0.999999 -0.001114
vn 0.000310 0.999998 -0.001865
vn 0.000030 1.000000 -0.000328
vn 0.000946 0.999999 -0.001114
vn 0.001661 0.000000 -0.999999
vn 0.001661 0.000000 -0.999999
vn 0.001661 0.000000 -0.999999
vn 0.001661 0.000000 -0.999999
vn -0.000946 -0.999999 0.001114
vn -0.000030 -1.000000 0.000328
vn -0.000310 -0.999998 0.001865
vn -0.000946 -0.999999 0.001114
vn 1.000000 0.000000 0.000000
vn 1.000000 0.000000 0.000000
vn 1.000000 0.000000 0.000000
vn 1.000000 0.000000 0.000000
vn -1.000000 0.000000 0.000000
vn -1.000000 0.000000 0.000000
vn -1.000000 0.000000 0.000000
vn -1.000000 0.000000 0.000000
vn -0.001629 0.000000 -0.999999
vn -0.001629 0.000000 -0.999999
vn -0.001629 0.000000 -0.999999
vn -0.001629 0.000000 -0.999999
vn 0.000308 -0.999998 0.001859
vn 0.000030 -1.000000 0.000329
vn 0.000929 -0.999999 0.001114
vn 0.000929 -0.999999 0.001114
vn 0.000000 0.000000 1.000000
vn 0.000000 0.000000 1.000000
vn 0.000000 0.000000 1.000000
vn 0.000000 0.000000 1.000000
vn -0.000030 1.000000 -0.000329
vn -0.000308 0.999998 -0.001860
vn -0.000929 0.999999 -0.001114
vn -0.000929 0.999999 -0.001114
vn 0.000000 1.000000 -0.000154
vn 0.000000 1.000000 -0.000147
vn 0.014676 0.000000 -0.999892
vn 0.000000 0.000000 -1.000000
vn 0.000000 0.000000 -1.000000
vn 0.014676 0.000000 -0.999892
vn 0.000000 -1.000000 0.000147
vn 0.000000 -1.000000 0.000154
vn 1.000000 -0.000142 -0.000108
vn 0.999158 -0.000131 -0.041019
vn 0.999159 -0.000131 -0.041011
vn 1.000000 -0.000142 -0.000108
vn -0.999161 0.000000 0.040947
vn -1.000000 0.000000 0.000030
vn -1.000000 0.000000 0.000030
vn -0.999162 0.000000 0.040939
vn 0.000000 1.000000 -0.000000
vn 0.000000 1.000000 -0.000000
vn 0.823982 0.000000 -0.566616
vn 0.823982 0.000000 -0.566616
vn 0.000000 -1.000000 -0.000000
vn 0.000000 -1.000000 -0.000000
vn -0.872507 0.000000 0.488602
vn -0.872507 0.000000 0.488602
vn 0.000000 1.000000 0.000000
vn 0.000000 1.000000 -0.000000
vn 0.789914 0.000000 -0.613217
vn 0.789914 0.000000 -0.613217
vn 0.000000 -1.000000 -0.000000
vn 0.000000 -1.000000 -0.000000
vn 0.000000 0.000000 1.000000
vn 0.000000 0.000000 1.000000
vn 0.000000 0.000000 1.000000
vn 0.000000 0.000000 1.000000
vn -0.011180 0.000000 0.999938
vn -0.011180 0.000000 0.999938
vn -0.011180 0.000000 0.999938
vn -0.011180 0.000000 0.999938
vn 0.000000 1.000000 -0.000000
vn 0.000000 1.000000 -0.000000
vn 0.028142 0.000000 -0.999604
vn 0.028142 0.000000 -0.999604
vn 0.000000 -1.000000 -0.000000
vn 0.000000 -1.000000 -0.000000
vn 0.735814 0.000000 0.677183
vn 0.735814 0.000000 0.677183
vn 0.735814 0.000000 0.677183
vn 0.735814 0.000000 0.677183
vn 0.000000 1.000000 0.000000
vn 0.000000 1.000000 0.000000
vn -0.639019 0.000000 -0.769191
vn -0.639019 0.000000 -0.769191
vn -0.639019 0.000000 -0.769191
vn -0.639019 0.000000 -0.769191
vn 0.000000 -1.000000 -0.000000
vn 0.000000 -1.000000 -0.000000
vn 0.000000 1.000000 0.000000
vn 0.000000 0.000000 1.000000
vn 0.000000 0.000000 1.000000
vn 0.000000 0.000000 1.000000
vn 0.000000 0.000000 1.000000
vn 0.000000 -1.000000 0.000000
vn 1.000000 0.000000 0.000000
vn 1.000000 0.000000 0.000000
vn 1.000000 0.000000 0.000000
vn 1.000000 0.000000 0.000000
vn 0.000000 1.000000 0.000000
vn 0.000000 1.000000 0.000000
vn -1.000000 0.000000 0.000000
vn -1.000000 0.000000 0.000000
vn -1.000000 0.000000 0.000000
vn -1.000000 0.000000 0.000000
vn 0.000000 -1.000000 0.000000
vn 0.000000 -1.000000 0.000000
vn 0.820906 0.000000 -0.571064
vn 0.820906 0.000000 -0.571064
vn 0.820906 0.000000 -0.571064
vn 0.820906 0.000000 -0.571064
vn 0.000000 -1.000000 -0.000000
vn 0.000000 -1.000000 -0.000000
vn -0.797661 0.000000 0.603106
vn -0.797661 0.000000 0.603106
vn -0.797661 0.000000 0.603106
vn -0.797661 0.000000 0.603106
vn 0.000000 1.000000 0.000000
vn 0.000000 1.000000 0.000000
vn 0.233516 0.000000 -0.972353
vn 0.233516 0.000000 -0.972353
vn 0.080011 0.000000 -0.996794
vn 0.080011 0.000000 -0.996794
vn 0.000000 -1.000000 -0.000000
vn 0.000000 -1.000000 -0.000000
vn -0.075244 0.000000 0.997165
vn -0.075244 0.000000 0.997165
vn -0.026614 0.000000 0.999646
vn -0.026614 0.000000 0.999646
vn 0.000000 1.000000 -0.000000
vn 0.000000 1.000000 -0.000000
vn -0.021442 0.000000 -0.999770
vn -0.021442 0.000000 -0.999770
vn 0.000000 -1.000000 0.000000
vn 0.000000 -1.000000 0.000000
vn -0.015883 0.000000 0.999874
vn -0.015883 0.000000 0.999874
vn 0.000000 1.000000 0.000000
vn 0.000000 1.000000 0.000000
vn -0.707108 0.000000 -0.707106
vn -0.707108 0.000000 -0.707106
vn -0.707108 0.000000 -0.707106
vn -0.707108 0.000000 -0.707106
vn 0.000000 -1.000000 0.000000
vn 0.000000 -1.000000 0.000000
vn 0.801110 0.000000 0.598517
vn 0.801110 0.000000 0.598517
vn 0.801110 0.000000 0.598517
vn 0.801110 0.000000 0.598517
vn 0.000000 1.000000 0.000000
vn 0.000000 1.000000 0.000000
vn -0.945239 0.000000 0.326379
vn -0.945239 0.000000 0.326379
vn -0.945239 0.000000 0.326379
vn -0.945239 0.000000 0.326379
vn 0.000000 -1.000000 0.000000
vn 0.000000 1.000000 0.000000
vn -1.000000 0.000000 0.000000
vn -1.000000 0.000000 0.000000
vn -1.000000 0.000000 0.000000
vn -1.000000 0.000000 0.000000
vn 0.000000 -1.000000 0.000000
vn 0.000000 -1.000000 0.000000
vn 1.000000 0.000000 0.000000
vn 1.000000 0.000000 0.000000
vn 1.000000 0.000000 0.000000
vn 1.000000 0.000000 0.000000
vn 0.000000 1.000000 0.000000
vn 0.000000 1.000000 0.000000
vn 0.695682 0.000000 -0.718350
vn 0.695682 0.000000 -0.718350
vn 0.497674 0.000000 -0.867364
vn 0.497674 0.000000 -0.867364
vn 0.000000 -1.000000 -0.000000
vn 0.000000 -1.000000 -0.000000
vn -0.778956 0.000000 0.627079
vn -0.778956 0.000000 0.627079
vn -0.775149 0.000000 0.631779
vn -0.775149 0.000000 0.631779
vn 0.000000 1.000000 0.000000
vn 0.000000 1.000000 0.000000
vn 0.232697 0.000000 -0.972549
vn 0.232697 0.000000 -0.972549
vn 0.000000 -1.000000 -0.000000
vn 0.000000 -1.000000 -0.000000
vn -0.740068 0.000000 0.672532
vn -0.740068 0.000000 0.672532
vn 0.000000 1.000000 0.000000
vn 0.000000 1.000000 0.000000
vn -0.395258 0.000000 -0.918570
vn -0.395258 0.000000 -0.918570
vn -0.395258 0.000000 -0.918570
vn -0.395258 0.000000 -0.918570
vn 0.000000 -1.000000 -0.000000
vn 0.000000 -1.000000 -0.000000
vn 0.097105 0.000000 0.995274
vn 0.097105 0.000000 0.995274
vn 0.097105 0.000000 0.995274
vn 0.097105 0.000000 0.995274
vn 0.000000 1.000000 0.000000
vn 0.000000 1.000000 0.000000
vn -0.951714 0.000000 -0.306987
vn -0.951714 0.000000 -0.306987
vn -0.951714 0.000000 -0.306987
vn -0.951714 0.000000 -0.306987
vn 0.000000 -1.000000 0.000000
vn 0.000000 -1.000000 0.000000
vn 0.930596 0.000000 0.366048
vn 0.930596 0.000000 0.366048
vn 0.930596 0.000000 0.366048
vn 0.930596 0.000000 0.366048
vn 0.000000 1.000000 0.000000
vn 0.000000 1.000000 0.000000
s 1
g D_Symbol_ExampleToken
usemtl initialShadingGroup
f 1/21/1 2/22/2 22/43/3 21/42/4
f 2/22/2 3/23/5 23/44/6 22/43/3
f 3/23/5 4/24/7 24/45/8 23/44/6
f 4/24/7 5/25/9 25/46/10 24/45/8
f 5/25/9 6/26/11 26/47/12 25/46/10
f 6/26/11 7/27/13 27/48/14 26/47/12
f 7/27/13 8/28/15 28/49/16 27/48/14
f 8/28/15 9/29/17 29/50/18 28/49/16
f 9/29/17 10/30/19 30/51/20 29/50/18
f 10/30/19 11/31/21 31/52/22 30/51/20
f 11/31/21 12/32/23 32/53/24 31/52/22
f 12/32/23 13/33/25 33/54/26 32/53/24
f 13/33/25 14/34/27 34/55/28 33/54/26
f 14/34/27 15/35/29 35/56/30 34/55/28
f 15/35/29 16/36/31 36/57/32 35/56/30
f 16/36/31 17/37/33 37/58/34 36/57/32
f 17/37/33 18/38/35 38/59/36 37/58/34
f 18/38/35 19/39/37 39/60/38 38/59/36
f 19/39/37 20/40/39 40/61/40 39/60/38
f 20/40/39 1/41/1 21/62/4 40/61/40
s 2
f 2/2/41 1/1/42 41/83/43
f 3/3/44 2/2/41 41/83/43
f 4/4/45 3/3/44 41/83/43
f 5/5/46 4/4/45 41/83/43
f 6/6/47 5/5/46 41/83/43
f 7/7/48 6/6/47 41/83/43
f 8/8/49 7/7/48 41/83/43
f 9/9/50 8/8/49 41/83/43
f 10/10/51 9/9/50 41/83/43
f 11/11/52 10/10/51 41/83/43
f 12/12/53 11/11/52 41/83/43
f 13/13/54 12/12/53 41/83/43
f 14/14/55 13/13/54 41/83/43
f 15/15/56 14/14/55 41/83/43
f 16/16/57 15/15/56 41/83/43
f 17/17/58 16/16/57 41/83/43
f 18/18/59 17/17/58 41/83/43
f 19/19/60 18/18/59 41/83/43
f 20/20/61 19/19/60 41/83/43
f 1/1/42 20/20/61 41/83/43
s 3
f 21/81/62 22/80/63 42/84/64
f 22/80/63 23/79/65 42/84/64
f 23/79/65 24/78/66 42/84/64
f 24/78/66 25/77/67 42/84/64
f 25/77/67 26/76/68 42/84/64
f 26/76/68 27/75/69 42/84/64
f 27/75/69 28/74/70 42/84/64
f 28/74/70 29/73/71 42/84/64
f 29/73/71 30/72/72 42/84/64
f 30/72/72 31/71/73 42/84/64
f 31/71/73 32/70/74 42/84/64
f 32/70/74 33/69/75 42/84/64
f 33/69/75 34/68/76 42/84/64
f 34/68/76 35/67/77 42/84/64
f 35/67/77 36/66/78 42/84/64
f 36/66/78 37/65/79 42/84/64
f 37/65/79 38/64/80 42/84/64
f 38/64/80 39/63/81 42/84/64
f 39/63/81 40/82/82 42/84/64
f 40/82/82 21/81/62 42/84/64
s 4
f 43/85/83 57/86/84 58/87/85 45/88/86
s 5
f 45/89/87 58/90/88 55/91/89 47/92/90
s off
f 47/93/91 55/94/92 56/95/93 49/96/94
s 6
f 49/97/95 56/98/96 57/99/97 43/100/98
s off
f 44/101/99 50/102/100 48/103/101 46/104/102
f 49/96/103 43/85/104 45/88/105 47/93/106
f 51/105/107 48/103/108 50/102/109 52/106/110
s 6
f 53/107/111 52/108/112 50/109/113 44/110/114
s 4
f 54/111/115 53/112/116 44/101/117 46/104/118
s 5
f 51/113/119 54/114/120 46/115/121 48/116/122
s 6
f 57/99/97 56/98/96 52/108/112 53/107/111
s 4
f 58/87/85 57/86/84 53/112/116 54/111/115
s 5
f 55/91/89 58/90/88 54/114/120 51/113/119
f 55/91/89 51/113/119 60/117/123 59/118/124
s 7
f 67/119/125 68/120/126 69/121/127 70/122/128
s 6
f 61/123/129 62/124/130 52/108/112 56/98/96
s 8
f 52/125/131 62/126/132 60/127/133 51/128/134
s 9
f 61/129/135 56/130/136 55/131/137 59/132/138
s 5
f 59/118/124 60/117/123 64/133/139 63/134/140
s 8
f 60/127/133 62/126/132 65/135/141 64/136/142
s 6
f 62/124/130 61/123/129 66/137/143 65/138/144
s 9
f 61/139/135 59/140/138 63/141/145 66/142/146
s 5
f 63/134/140 64/133/139 68/143/147 67/144/148
s 8
f 64/136/142 65/135/141 69/121/149 68/120/150
s 6
f 65/138/144 66/137/143 70/145/151 69/146/152
s off
f 82/147/153 81/148/154 83/149/155 84/150/156
f 66/142/157 63/141/158 71/151/159 72/152/160
s 5
f 63/134/140 67/144/148 73/153/161 71/154/162
s 7
f 67/119/125 70/122/128 74/155/163 73/156/164
s 6
f 70/145/151 66/137/143 72/157/165 74/158/166
s off
f 72/152/167 71/151/168 75/159/169 76/160/170
s 5
f 71/154/162 73/153/161 77/161/171 75/162/172
s off
f 73/156/173 74/155/174 78/163/175 77/164/176
s 6
f 74/158/166 72/157/165 76/165/177 78/166/178
s 5
f 75/162/172 77/161/171 79/167/179
s off
f 103/168/180 104/169/181 105/170/182 106/171/183
s 6
f 78/166/178 76/165/177 80/172/184
s off
f 76/160/185 75/159/186 81/148/187 82/147/188
s 5
f 75/162/172 79/167/179 83/173/189 81/174/190
s off
f 79/175/191 80/176/192 84/150/193 83/149/194
s 6
f 80/172/184 76/165/177 82/177/195 84/178/196
s off
f 77/164/197 78/163/198 86/179/199 85/180/200
s 6
f 78/166/178 80/172/184 87/181/201 86/182/202
s off
f 80/176/203 79/175/204 88/183/205 87/184/206
s 5
f 79/167/179 77/161/171 85/185/207 88/186/208
s 10
f 85/180/209 86/179/210 90/187/211 89/188/212
s 6
f 86/182/202 87/181/201 91/189/213 90/190/214
s 11
f 87/184/215 88/183/216 92/191/217 91/192/218
s 5
f 88/186/208 85/185/207 89/193/219 92/194/220
s 10
f 89/188/212 90/187/211 94/195/221 93/196/222
s 6
f 90/190/214 91/189/213 95/197/223 94/198/224
s 11
f 91/192/218 92/191/217 96/199/225 95/200/226
s 5
f 92/194/220 89/193/219 93/201/227 96/202/228
s off
f 93/196/229 94/195/230 98/203/231 97/204/232
s 6
f 94/198/224 95/197/223 99/205/233 98/206/234
s off
f 95/200/235 96/199/236 100/207/237 99/208/238
s 5
f 96/202/228 93/201/227 97/209/239 100/210/240
s off
f 119/211/241 120/212/242 121/213/243 122/214/244
s 6
f 98/206/234 99/205/233 102/215/245
s 5
f 100/210/240 97/209/239 101/216/246
s off
f 101/217/247 102/218/248 104/169/249 103/168/250
s 6
f 102/215/245 99/205/233 105/219/251 104/220/252
s off
f 99/208/253 100/207/254 106/171/255 105/170/256
s 5
f 100/210/240 101/216/246 103/221/257 106/222/258
s 12
f 97/204/259 98/203/260 108/223/261 107/224/262
s 6
f 98/206/234 102/215/245 109/225/263 108/226/264
s 13
f 102/218/265 101/217/266 110/227/267 109/228/268
s 5
f 101/216/246 97/209/239 107/229/269 110/230/270
s 12
f 107/224/262 108/223/261 112/231/271 111/232/272
s 6
f 108/226/264 109/225/263 113/233/273 112/234/274
s 13
f 109/228/268 110/227/267 114/235/275 113/236/276
s 5
f 110/230/270 107/229/269 111/237/277 114/238/278
s off
f 111/232/279 112/231/280 116/239/281 115/240/282
s 6
f 112/234/274 113/233/273 117/241/283 116/242/284
s off
f 113/236/285 114/235/286 118/243/287 117/244/288
s 5
f 114/238/278 111/237/277 115/245/289 118/246/290
s off
f 115/240/291 116/239/292 120/212/293 119/211/294
s 6
f 116/242/284 117/241/283 121/247/295 120/248/296
s off
f 117/244/297 118/243/298 122/249/299 121/250/300
s 5
f 118/246/290 115/245/289 119/251/301 122/252/302
