# This file uses centimeters as units for non-parametric coordinates.

mtllib Rune1.mtl
g default
v 1.188198 -0.202140 -0.386271
v 1.010648 -0.202140 -0.734732
v 0.734108 -0.202140 -1.011272
v 0.385648 -0.202140 -1.188821
v -0.000624 -0.202140 -1.250001
v -0.386895 -0.202140 -1.188821
v -0.735356 -0.202140 -1.011272
v -1.011895 -0.202140 -0.734732
v -1.189445 -0.202140 -0.386271
v -1.250624 -0.202140 0.000000
v -1.189445 -0.202140 0.386271
v -1.011895 -0.202140 0.734732
v -0.735355 -0.202140 1.011271
v -0.386895 -0.202140 1.188821
v -0.000624 -0.202140 1.250000
v 0.385647 -0.202140 1.188821
v 0.734108 -0.202140 1.011271
v 1.010647 -0.202140 0.734732
v 1.188197 -0.202140 0.386271
v 1.249376 -0.202140 0.000000
v 1.188198 0.205548 -0.386271
v 1.010648 0.205548 -0.734732
v 0.734108 0.205548 -1.011272
v 0.385648 0.205548 -1.188821
v -0.000624 0.205548 -1.250001
v -0.386895 0.205548 -1.188821
v -0.735356 0.205548 -1.011272
v -1.011895 0.205548 -0.734732
v -1.189445 0.205548 -0.386271
v -1.250624 0.205548 0.000000
v -1.189445 0.205548 0.386271
v -1.011895 0.205548 0.734732
v -0.735355 0.205548 1.011271
v -0.386895 0.205548 1.188821
v -0.000624 0.205548 1.250000
v 0.385647 0.205548 1.188821
v 0.734108 0.205548 1.011271
v 1.010647 0.205548 0.734732
v 1.188197 0.205548 0.386271
v 1.249376 0.205548 0.000000
v -0.000624 -0.202140 0.000000
v -0.000624 0.205548 0.000000
v -0.084940 0.121159 1.051901
v 0.214567 0.121159 1.051901
v -0.084940 0.394261 1.051901
v 0.214567 0.394261 1.051901
v -0.084940 0.394261 -0.932755
v 0.214567 0.394261 -0.932755
v -0.084940 0.121159 -0.932755
v 0.214567 0.121159 -0.932755
v 0.214567 0.394261 0.203243
v -0.084940 0.394261 0.446684
v -0.084940 0.121159 0.446684
v 0.214567 0.121159 0.203243
v 0.214567 0.394261 0.357091
v -0.084940 0.394261 0.600531
v -0.084940 0.121159 0.600531
v 0.214567 0.121159 0.357091
v 0.576732 0.121159 0.001799
v 0.576732 0.394261 0.001799
v 0.510937 0.121159 -0.066515
v 0.510937 0.394261 -0.066515
v 0.774695 0.121159 -0.299500
v 0.774695 0.394261 -0.299500
v 0.676003 0.121159 -0.302020
v 0.676003 0.394261 -0.302020
v 0.779859 0.121159 -0.316784
v 0.779859 0.394261 -0.316784
v 0.517067 0.121159 -0.323493
v 0.517067 0.394261 -0.323493
v 0.799484 0.121159 -0.391175
v 0.799484 0.394261 -0.391175
v 0.501264 0.121159 -0.398788
v 0.501264 0.394261 -0.398788
v 0.783343 0.121159 -0.463864
v 0.783343 0.394261 -0.463864
v 0.521093 0.121159 -0.470559
v 0.521093 0.394261 -0.470559
v 0.749409 0.121159 -0.520036
v 0.749409 0.394261 -0.520036
v 0.557848 0.121159 -0.524926
v 0.557848 0.394261 -0.524926
v 0.706623 0.121159 -0.535874
v 0.706623 0.394261 -0.535874
v 0.601386 0.121159 -0.538560
v 0.601386 0.394261 -0.538560
v -0.448765 0.121159 0.725356
v -0.397702 0.121159 0.851639
v -0.397702 0.394261 0.851639
v -0.448765 0.394261 0.725356
v -0.084940 0.394261 -0.689060
v -0.084940 0.121159 -0.689060
v 0.214567 0.121159 -0.716298
v 0.214567 0.394261 -0.716298
v -0.084940 0.394261 -0.810335
v -0.084940 0.121159 -0.810335
v 0.214567 0.121159 -0.831940
v 0.214567 0.394261 -0.831940
v -0.397702 0.121159 -0.462982
v -0.397702 0.121159 -0.334295
v -0.397702 0.394261 -0.334295
v -0.397702 0.394261 -0.462982
v -0.576423 0.121159 -0.297026
v -0.518977 0.121159 -0.187488
v -0.518977 0.394261 -0.187488
v -0.576423 0.394261 -0.297026
v -0.672167 0.394261 -0.935316
v -0.672167 0.121159 -0.935316
v -0.850888 0.121159 -0.769361
v -0.850888 0.394261 -0.769361
vt 0.885405 0.450499
vt 0.863568 0.407641
vt 0.829556 0.373629
vt 0.786698 0.351792
vt 0.739190 0.344267
vt 0.691681 0.351792
vt 0.648823 0.373629
vt 0.614811 0.407641
vt 0.592974 0.450499
vt 0.585450 0.498007
vt 0.592974 0.545516
vt 0.614811 0.588373
vt 0.648823 0.622385
vt 0.691681 0.644223
vt 0.739190 0.651747
vt 0.786698 0.644223
vt 0.829556 0.622385
vt 0.863568 0.588373
vt 0.885405 0.545516
vt 0.892929 0.498007
vt 0.901561 0.947569
vt 0.901523 0.901345
vt 0.901486 0.855121
vt 0.901448 0.808897
vt 0.901411 0.762673
vt 0.901373 0.716450
vt 0.901335 0.670226
vt 0.901298 0.624002
vt 0.901260 0.577779
vt 0.901223 0.531555
vt 0.901185 0.485331
vt 0.901148 0.439107
vt 0.901110 0.392884
vt 0.901072 0.346660
vt 0.901035 0.300436
vt 0.900997 0.254212
vt 0.900959 0.207989
vt 0.900922 0.161765
vt 0.900884 0.115541
vt 0.900847 0.069317
vt 0.900809 0.023094
vt 0.964556 0.947517
vt 0.964518 0.901294
vt 0.964480 0.855070
vt 0.964443 0.808846
vt 0.964405 0.762622
vt 0.964367 0.716398
vt 0.964330 0.670175
vt 0.964292 0.623951
vt 0.964255 0.577727
vt 0.964217 0.531504
vt 0.964179 0.485280
vt 0.964142 0.439056
vt 0.964104 0.392832
vt 0.964067 0.346609
vt 0.964029 0.300385
vt 0.963991 0.254161
vt 0.963954 0.207937
vt 0.963916 0.161714
vt 0.963879 0.115490
vt 0.963841 0.069266
vt 0.963803 0.023042
vt 0.887103 0.770966
vt 0.865266 0.728109
vt 0.831254 0.694097
vt 0.788397 0.672260
vt 0.740888 0.664735
vt 0.693380 0.672260
vt 0.650522 0.694097
vt 0.616510 0.728109
vt 0.594673 0.770966
vt 0.587148 0.818475
vt 0.594673 0.865983
vt 0.616510 0.908841
vt 0.650522 0.942853
vt 0.693380 0.964690
vt 0.740888 0.972215
vt 0.788397 0.964690
vt 0.831254 0.942853
vt 0.865266 0.908841
vt 0.887103 0.865983
vt 0.894628 0.818475
vt 0.739190 0.491858
vt 0.740888 0.812325
vt 0.250300 0.384956
vt 0.208543 0.384829
vt 0.208658 0.346751
vt 0.250416 0.346879
vt 0.208952 0.249879
vt 0.250607 0.283948
vt 0.249346 0.699743
vt 0.207588 0.699615
vt 0.207704 0.661538
vt 0.249462 0.661666
vt 0.250110 0.447888
vt 0.208249 0.481702
vt 0.413641 0.084513
vt 0.413751 0.177404
vt 0.377240 0.177447
vt 0.377129 0.084556
vt 0.081966 0.102603
vt 0.082006 0.040272
vt 0.119720 0.040297
vt 0.119679 0.102628
vt 0.250672 0.262497
vt 0.209017 0.228430
vt 0.209405 0.100223
vt 0.251152 0.104147
vt 0.081774 0.396928
vt 0.081876 0.240089
vt 0.119590 0.240113
vt 0.119488 0.396953
vt 0.249565 0.627688
vt 0.207795 0.631360
vt 0.208184 0.503152
vt 0.250045 0.469337
vt 0.377613 0.493654
vt 0.414124 0.493610
vt 0.414270 0.616545
vt 0.377758 0.616588
vt 0.081917 0.176803
vt 0.081929 0.157992
vt 0.119643 0.158017
vt 0.119631 0.176827
vt 0.377420 0.330997
vt 0.413932 0.330954
vt 0.413949 0.345028
vt 0.377437 0.345071
vt 0.413831 0.245231
vt 0.377320 0.245274
vt 0.166749 0.540638
vt 0.157604 0.531085
vt 0.377550 0.440075
vt 0.414061 0.440032
vt 0.158607 0.200190
vt 0.167810 0.190693
vt 0.413888 0.293429
vt 0.377377 0.293472
vt 0.143635 0.573403
vt 0.129876 0.573010
vt 0.377504 0.401626
vt 0.414016 0.401583
vt 0.131134 0.158098
vt 0.144895 0.157788
vt 0.413891 0.295840
vt 0.377379 0.295884
vt 0.165785 0.576464
vt 0.129148 0.575418
vt 0.377479 0.380185
vt 0.413990 0.380142
vt 0.130421 0.155686
vt 0.167064 0.154862
vt 0.413903 0.306127
vt 0.377392 0.306169
vt 0.167956 0.586969
vt 0.126381 0.585781
vt 0.377467 0.369899
vt 0.413979 0.369856
vt 0.127717 0.145306
vt 0.169299 0.144371
vt 0.413915 0.316081
vt 0.377403 0.316124
vt 0.165161 0.596967
vt 0.128601 0.595923
vt 0.377455 0.359945
vt 0.413967 0.359901
vt 0.129997 0.135178
vt 0.166565 0.134356
vt 0.413925 0.324855
vt 0.377414 0.324898
vt 0.160014 0.604531
vt 0.133308 0.603769
vt 0.377445 0.351171
vt 0.413956 0.351128
vt 0.134753 0.127361
vt 0.161463 0.126760
vt 0.153938 0.606414
vt 0.139267 0.605995
vt 0.140725 0.125171
vt 0.155399 0.124841
vt 0.293823 0.413010
vt 0.300889 0.430638
vt 0.301280 0.301505
vt 0.294108 0.319089
vt 0.081703 0.505616
vt 0.081714 0.488535
vt 0.119428 0.488560
vt 0.119417 0.505640
vt 0.249513 0.644597
vt 0.207746 0.647482
vt 0.414288 0.632006
vt 0.377776 0.632049
vt 0.209455 0.084100
vt 0.251204 0.087239
vt 0.081531 0.771626
vt 0.081542 0.754720
vt 0.119255 0.754744
vt 0.119245 0.771650
vt 0.414304 0.645484
vt 0.377792 0.645527
vt 0.209497 0.070044
vt 0.251256 0.070170
vt 0.293321 0.578357
vt 0.293267 0.596299
vt 0.119445 0.462264
vt 0.081732 0.462239
vt 0.294663 0.135800
vt 0.294609 0.153743
vt 0.081584 0.690173
vt 0.119297 0.690198
vt 0.310292 0.557940
vt 0.318255 0.573236
vt 0.319511 0.159014
vt 0.311456 0.174262
vt 0.119346 0.614759
vt 0.081632 0.614734
vt 0.081654 0.581055
vt 0.119368 0.581079
vt 0.356323 0.639208
vt 0.331334 0.662271
vt 0.333130 0.070062
vt 0.357978 0.093275
vn 0.951057 0.000000 -0.309016
vn 0.809017 0.000000 -0.587785
vn 0.809017 0.000000 -0.587785
vn 0.951057 0.000000 -0.309016
vn 0.587785 0.000000 -0.809017
vn 0.587785 0.000000 -0.809017
vn 0.309017 0.000000 -0.951057
vn 0.309017 0.000000 -0.951057
vn -0.000000 0.000000 -1.000000
vn -0.000000 0.000000 -1.000000
vn -0.309017 0.000000 -0.951056
vn -0.309017 0.000000 -0.951056
vn -0.587785 0.000000 -0.809017
vn -0.587785 0.000000 -0.809017
vn -0.809017 0.000000 -0.587785
vn -0.809017 0.000000 -0.587785
vn -0.951057 0.000000 -0.309017
vn -0.951057 0.000000 -0.309017
vn -1.000000 0.000000 0.000000
vn -1.000000 0.000000 0.000000
vn -0.951057 0.000000 0.309017
vn -0.951057 0.000000 0.309017
vn -0.809017 0.000000 0.587785
vn -0.809017 0.000000 0.587785
vn -0.587785 0.000000 0.809017
vn -0.587785 0.000000 0.809017
vn -0.309017 0.000000 0.951057
vn -0.309017 0.000000 0.951057
vn 0.000000 0.000000 1.000000
vn 0.000000 0.000000 1.000000
vn 0.309017 0.000000 0.951057
vn 0.309017 0.000000 0.951057
vn 0.587785 0.000000 0.809017
vn 0.587785 0.000000 0.809017
vn 0.809017 0.000000 0.587785
vn 0.809017 0.000000 0.587785
vn 0.951057 0.000000 0.309017
vn 0.951057 0.000000 0.309017
vn 1.000000 0.000000 0.000001
vn 1.000000 0.000000 0.000001
vn 0.000000 -1.000000 0.000000
vn 0.000000 -1.000000 -0.000000
vn 0.000000 -1.000000 0.000000
vn 0.000000 -1.000000 0.000000
vn 0.000000 -1.000000 0.000000
vn 0.000000 -1.000000 0.000000
vn 0.000000 -1.000000 0.000000
vn 0.000000 -1.000000 0.000000
vn 0.000000 -1.000000 0.000000
vn 0.000000 -1.000000 -0.000000
vn 0.000000 -1.000000 -0.000000
vn 0.000000 -1.000000 -0.000000
vn 0.000000 -1.000000 0.000000
vn 0.000000 -1.000000 0.000000
vn 0.000000 -1.000000 -0.000000
vn 0.000000 -1.000000 -0.000000
vn 0.000000 -1.000000 0.000000
vn 0.000000 -1.000000 0.000000
vn 0.000000 -1.000000 -0.000000
vn 0.000000 -1.000000 0.000000
vn 0.000000 -1.000000 0.000000
vn 0.000000 1.000000 0.000000
vn 0.000000 1.000000 0.000000
vn 0.000000 1.000000 -0.000000
vn 0.000000 1.000000 -0.000000
vn 0.000000 1.000000 -0.000000
vn 0.000000 1.000000 0.000000
vn 0.000000 1.000000 0.000000
vn 0.000000 1.000000 0.000000
vn 0.000000 1.000000 0.000000
vn 0.000000 1.000000 -0.000000
vn 0.000000 1.000000 0.000000
vn 0.000000 1.000000 0.000000
vn 0.000000 1.000000 -0.000000
vn 0.000000 1.000000 -0.000000
vn 0.000000 1.000000 0.000000
vn 0.000000 1.000000 0.000000
vn 0.000000 1.000000 0.000000
vn 0.000000 1.000000 -0.000000
vn 0.000000 1.000000 0.000000
vn 0.000000 1.000000 0.000000
vn 0.000000 1.000000 0.000000
vn 0.000000 0.000000 1.000000
vn 0.000000 0.000000 1.000000
vn 0.000000 0.000000 1.000000
vn 0.000000 0.000000 1.000000
vn 0.000000 1.000000 0.000000
vn 0.000000 1.000000 0.000000
vn 0.000000 1.000000 0.000000
vn 0.000000 1.000000 0.000000
vn 0.000000 0.000000 -1.000000
vn 0.000000 0.000000 -1.000000
vn 0.000000 0.000000 -1.000000
vn 0.000000 0.000000 -1.000000
vn 0.000000 -1.000000 0.000000
vn 0.000000 -1.000000 0.000000
vn 0.000000 -1.000000 0.000000
vn 0.000000 -1.000000 0.000000
vn 1.000000 0.000000 0.000000
vn 1.000000 0.000000 0.000000
vn 1.000000 0.000000 0.000000
vn 1.000000 0.000000 0.000000
vn -1.000000 0.000000 0.000000
vn -1.000000 0.000000 0.000000
vn -1.000000 0.000000 0.000000
vn -1.000000 0.000000 0.000000
vn 0.000000 1.000000 0.000000
vn 0.000000 1.000000 0.000000
vn 0.000000 1.000000 0.000000
vn 0.000000 1.000000 0.000000
vn -1.000000 0.000000 0.000000
vn -1.000000 0.000000 0.000000
vn -1.000000 0.000000 0.000000
vn -1.000000 0.000000 0.000000
vn 0.000000 -1.000000 0.000000
vn 0.000000 -1.000000 0.000000
vn 0.000000 -1.000000 0.000000
vn 0.000000 -1.000000 0.000000
vn 1.000000 0.000000 0.000000
vn 1.000000 0.000000 0.000000
vn 1.000000 0.000000 0.000000
vn 1.000000 0.000000 0.000000
vn -0.927078 0.000000 0.374868
vn -0.927078 0.000000 0.374868
vn -0.927078 0.000000 0.374868
vn -0.927078 0.000000 0.374868
vn 0.124174 0.000000 -0.992261
vn 0.124174 0.000000 -0.992261
vn -0.073386 0.000000 -0.997304
vn -0.073386 0.000000 -0.997304
vn 0.700300 0.000000 0.713848
vn 0.700300 0.000000 0.713848
vn 0.760780 0.000000 0.649010
vn 0.760780 0.000000 0.649010
vn 0.000000 -1.000000 0.000000
vn 0.000000 -1.000000 0.000000
vn -0.673124 0.000000 -0.739529
vn -0.673124 0.000000 -0.739529
vn -0.738406 0.000000 -0.674356
vn -0.738406 0.000000 -0.674356
vn 0.000000 1.000000 0.000000
vn 0.000000 1.000000 0.000000
vn 0.843191 0.000000 0.537615
vn 0.843191 0.000000 0.537615
vn 0.000000 -1.000000 -0.000000
vn 0.000000 -1.000000 -0.000000
vn -0.818885 0.000000 -0.573958
vn -0.818885 0.000000 -0.573958
vn 0.000000 1.000000 0.000000
vn 0.000000 1.000000 0.000000
vn 0.965332 0.000000 0.261027
vn 0.965332 0.000000 0.261027
vn 0.000000 -1.000000 0.000000
vn 0.000000 -1.000000 -0.000000
vn -0.133888 0.000000 0.990997
vn -0.133888 0.000000 0.990997
vn -0.133888 0.000000 0.990997
vn -0.133888 0.000000 0.990997
vn 0.000000 1.000000 -0.000000
vn 0.000000 1.000000 -0.000000
vn 0.999720 0.000000 0.023683
vn 0.999720 0.000000 0.023683
vn 0.000000 -1.000000 -0.000000
vn 0.000000 -1.000000 -0.000000
vn -0.978676 0.000000 0.205409
vn -0.978676 0.000000 0.205409
vn -0.999626 0.000000 -0.027361
vn -0.999626 0.000000 -0.027361
vn 0.000000 1.000000 -0.000000
vn 0.000000 1.000000 -0.000000
vn 0.932099 0.000000 -0.362203
vn 0.932099 0.000000 -0.362203
vn 0.000000 -1.000000 -0.000000
vn 0.000000 -1.000000 -0.000000
vn -0.912402 0.000000 -0.409295
vn -0.912402 0.000000 -0.409295
vn 0.000000 1.000000 -0.000000
vn 0.000000 1.000000 -0.000000
vn 0.855942 0.000000 -0.517072
vn 0.855942 0.000000 -0.517072
vn 0.000000 -1.000000 0.000000
vn 0.000000 -1.000000 0.000000
vn -0.828442 0.000000 -0.560074
vn -0.828442 0.000000 -0.560074
vn 0.000000 1.000000 0.000000
vn 0.000000 1.000000 0.000000
vn 0.347139 0.000000 -0.937814
vn 0.347139 0.000000 -0.937814
vn 0.000000 -1.000000 0.000000
vn 0.000000 -1.000000 0.000000
vn -0.298836 0.000000 -0.954305
vn -0.298836 0.000000 -0.954305
vn 0.000000 1.000000 -0.000001
vn 0.000000 1.000000 -0.000001
vn 0.000000 -1.000000 0.000000
vn 0.000000 -1.000000 0.000000
vn 0.626060 0.000000 0.779775
vn 0.626060 0.000000 0.779775
vn 0.626060 0.000000 0.779775
vn 0.626060 0.000000 0.779775
vn 0.000000 1.000000 0.000000
vn 0.000000 1.000000 0.000000
vn -0.608073 0.000000 -0.793881
vn -0.608073 0.000000 -0.793881
vn -0.608073 0.000000 -0.793881
vn -0.608073 0.000000 -0.793881
vn -0.868621 0.000000 0.495477
vn -0.885603 0.000000 0.464444
vn -0.885603 0.000000 0.464444
vn -0.868621 0.000000 0.495477
vn 0.000000 -1.000000 0.000000
vn 0.000000 -1.000000 0.000000
vn 1.000000 0.000000 0.000000
vn 1.000000 0.000000 0.000000
vn 0.000000 1.000000 0.000000
vn 0.000000 1.000000 0.000000
vn -1.000000 0.000000 0.000000
vn -1.000000 0.000000 0.000000
vn -1.000000 0.000000 0.000000
vn -1.000000 0.000000 0.000000
vn 0.000000 -1.000000 0.000000
vn 0.000000 -1.000000 0.000000
vn 1.000000 0.000000 0.000000
vn 1.000000 0.000000 0.000000
vn 0.000000 1.000000 0.000000
vn 0.000000 1.000000 0.000000
vn 0.000000 -1.000000 0.000000
vn 0.000000 -1.000000 0.000000
vn 0.750116 0.000000 0.661306
vn 0.750116 0.000000 0.661306
vn 0.756180 0.000000 0.654364
vn 0.756180 0.000000 0.654364
vn 0.000000 1.000000 0.000000
vn 0.000000 1.000000 0.000000
vn -0.743141 0.000000 -0.669135
vn -0.743141 0.000000 -0.669135
vn -0.743141 0.000000 -0.669135
vn -0.743141 0.000000 -0.669135
vn 0.000000 -1.000000 0.000000
vn 0.000000 -1.000000 0.000000
vn 0.770962 0.000000 0.636881
vn 0.770962 0.000000 0.636881
vn 0.000000 1.000000 0.000000
vn 0.000000 1.000000 0.000000
vn -0.680451 0.000000 -0.732793
vn -0.680451 0.000000 -0.732793
vn -0.680451 0.000000 -0.732793
vn -0.680451 0.000000 -0.732793
vn 0.864625 0.000000 -0.502417
vn 0.864625 0.000000 -0.502417
vn 0.864625 0.000000 -0.502417
vn 0.864625 0.000000 -0.502417
vn 0.000000 -1.000000 0.000000
vn 0.000000 -1.000000 0.000000
vn -0.864625 0.000000 0.502417
vn -0.864625 0.000000 0.502417
vn 0.000000 1.000000 0.000000
vn 0.000000 1.000000 0.000000
s 1
g H_Symbol_ExampleToken
usemtl initialShadingGroup
f 1/21/1 2/22/2 22/43/3 21/42/4
f 2/22/2 3/23/5 23/44/6 22/43/3
f 3/23/5 4/24/7 24/45/8 23/44/6
f 4/24/7 5/25/9 25/46/10 24/45/8
f 5/25/9 6/26/11 26/47/12 25/46/10
f 6/26/11 7/27/13 27/48/14 26/47/12
f 7/27/13 8/28/15 28/49/16 27/48/14
f 8/28/15 9/29/17 29/50/18 28/49/16
f 9/29/17 10/30/19 30/51/20 29/50/18
f 10/30/19 11/31/21 31/52/22 30/51/20
f 11/31/21 12/32/23 32/53/24 31/52/22
f 12/32/23 13/33/25 33/54/26 32/53/24
f 13/33/25 14/34/27 34/55/28 33/54/26
f 14/34/27 15/35/29 35/56/30 34/55/28
f 15/35/29 16/36/31 36/57/32 35/56/30
f 16/36/31 17/37/33 37/58/34 36/57/32
f 17/37/33 18/38/35 38/59/36 37/58/34
f 18/38/35 19/39/37 39/60/38 38/59/36
f 19/39/37 20/40/39 40/61/40 39/60/38
f 20/40/39 1/41/1 21/62/4 40/61/40
s 2
f 2/2/41 1/1/42 41/83/43
f 3/3/44 2/2/41 41/83/43
f 4/4/45 3/3/44 41/83/43
f 5/5/46 4/4/45 41/83/43
f 6/6/47 5/5/46 41/83/43
f 7/7/48 6/6/47 41/83/43
f 8/8/49 7/7/48 41/83/43
f 9/9/50 8/8/49 41/83/43
f 10/10/51 9/9/50 41/83/43
f 11/11/52 10/10/51 41/83/43
f 12/12/53 11/11/52 41/83/43
f 13/13/54 12/12/53 41/83/43
f 14/14/55 13/13/54 41/83/43
f 15/15/56 14/14/55 41/83/43
f 16/16/57 15/15/56 41/83/43
f 17/17/58 16/16/57 41/83/43
f 18/18/59 17/17/58 41/83/43
f 19/19/60 18/18/59 41/83/43
f 20/20/61 19/19/60 41/83/43
f 1/1/42 20/20/61 41/83/43
s 3
f 21/81/62 22/80/63 42/84/64
f 22/80/63 23/79/65 42/84/64
f 23/79/65 24/78/66 42/84/64
f 24/78/66 25/77/67 42/84/64
f 25/77/67 26/76/68 42/84/64
f 26/76/68 27/75/69 42/84/64
f 27/75/69 28/74/70 42/84/64
f 28/74/70 29/73/71 42/84/64
f 29/73/71 30/72/72 42/84/64
f 30/72/72 31/71/73 42/84/64
f 31/71/73 32/70/74 42/84/64
f 32/70/74 33/69/75 42/84/64
f 33/69/75 34/68/76 42/84/64
f 34/68/76 35/67/77 42/84/64
f 35/67/77 36/66/78 42/84/64
f 36/66/78 37/65/79 42/84/64
f 37/65/79 38/64/80 42/84/64
f 38/64/80 39/63/81 42/84/64
f 39/63/81 40/82/82 42/84/64
f 40/82/82 21/81/62 42/84/64
s off
f 43/85/83 44/86/84 46/87/85 45/88/86
s 4
f 45/88/87 46/87/88 55/89/89 56/90/90
s off
f 47/91/91 48/92/92 50/93/93 49/94/94
s 5
f 57/95/95 58/96/96 44/86/97 43/85/98
s off
f 44/97/99 58/98/100 55/99/101 46/100/102
f 57/101/103 43/102/104 45/103/105 56/104/106
s 4
f 52/105/107 51/106/108 94/107/109 91/108/110
s off
f 92/109/111 53/110/112 52/111/113 91/112/114
s 5
f 92/113/115 93/114/116 54/115/117 53/116/118
s 7
f 51/117/119 54/118/120 93/119/121 94/120/122
s 4
f 56/90/90 55/89/89 51/106/108 52/105/107
s off
f 87/121/123 88/122/124 89/123/125 90/124/126
s 5
f 53/116/118 54/115/117 58/96/96 57/95/95
s 8
f 84/125/127 83/126/128 85/127/129 86/128/130
s 9
f 55/99/131 58/98/132 59/129/133 60/130/134
s 5
f 58/96/96 54/115/117 61/131/135 59/132/136
s 10
f 54/118/137 51/117/138 62/133/139 61/134/140
s 4
f 51/106/108 55/89/89 60/135/141 62/136/142
s 9
f 60/130/134 59/129/133 63/137/143 64/138/144
s 5
f 59/132/136 61/131/135 65/139/145 63/140/146
s 10
f 61/134/140 62/133/139 66/141/147 65/142/148
s 4
f 62/136/142 60/135/141 64/143/149 66/144/150
s 9
f 64/138/144 63/137/143 67/145/151 68/146/152
s 5
f 63/140/146 65/139/145 69/147/153 67/148/154
s off
f 65/142/155 66/141/156 70/149/157 69/150/158
s 4
f 66/144/150 64/143/149 68/151/159 70/152/160
s 9
f 68/146/152 67/145/151 71/153/161 72/154/162
s 5
f 67/148/154 69/147/153 73/155/163 71/156/164
s 11
f 69/150/165 70/149/166 74/157/167 73/158/168
s 4
f 70/152/160 68/151/159 72/159/169 74/160/170
s 9
f 72/154/162 71/153/161 75/161/171 76/162/172
s 5
f 71/156/164 73/155/163 77/163/173 75/164/174
s 11
f 73/158/168 74/157/167 78/165/175 77/166/176
s 4
f 74/160/170 72/159/169 76/167/177 78/168/178
s 9
f 76/162/172 75/161/171 79/169/179 80/170/180
s 5
f 75/164/174 77/163/173 81/171/181 79/172/182
s 11
f 77/166/176 78/165/175 82/173/183 81/174/184
s 4
f 78/168/178 76/167/177 80/175/185 82/176/186
s 8
f 80/170/187 79/169/188 83/126/128 84/125/127
s 5
f 79/172/182 81/171/181 85/177/189 83/178/190
s 8
f 81/174/191 82/173/192 86/128/130 85/127/129
s 4
f 82/176/186 80/175/185 84/179/193 86/180/194
s 5
f 53/116/118 57/95/95 88/181/195 87/182/196
s off
f 57/101/197 56/104/198 89/123/199 88/122/200
s 4
f 56/90/90 52/105/107 90/183/201 89/184/202
s off
f 52/111/203 53/110/204 87/121/205 90/124/206
s 12
f 103/185/207 104/186/208 105/187/209 106/188/210
s 5
f 96/189/211 97/190/212 93/114/116 92/113/115
s 7
f 94/120/122 93/119/121 97/191/213 98/192/214
s 4
f 91/108/110 94/107/109 98/193/215 95/194/216
s off
f 49/195/217 96/196/218 95/197/219 47/198/220
s 5
f 49/94/221 50/93/222 97/190/212 96/189/211
s 7
f 98/192/214 97/191/213 50/199/223 48/200/224
s 4
f 95/194/216 98/193/215 48/201/225 47/202/226
s 5
f 96/189/211 92/113/115 100/203/227 99/204/228
s 13
f 92/109/229 91/112/230 101/205/231 100/206/232
s 4
f 91/108/110 95/194/216 102/207/233 101/208/234
s off
f 95/197/235 96/196/236 99/209/237 102/210/238
s 5
f 99/204/228 100/203/227 104/211/239 103/212/240
s 13
f 100/206/232 101/205/231 105/187/241 104/186/242
s 4
f 101/208/234 102/207/233 106/213/243 105/214/244
s off
f 107/215/245 108/216/246 109/217/247 110/218/248
f 102/210/249 99/209/250 108/216/251 107/215/252
s 5
f 99/204/228 103/212/240 109/219/253 108/220/254
s 12
f 103/185/207 106/188/210 110/218/255 109/217/256
s 4
f 106/213/243 102/207/233 107/221/257 110/222/258
