# This file uses centimeters as units for non-parametric coordinates.

mtllib Rune2.mtl
g default
v 1.189035 -0.206667 -0.390367
v 1.011485 -0.206667 -0.738828
v 0.734945 -0.206667 -1.015367
v 0.386485 -0.206667 -1.192917
v 0.000213 -0.206667 -1.254096
v -0.386058 -0.206667 -1.192917
v -0.734518 -0.206667 -1.015367
v -1.011058 -0.206667 -0.738827
v -1.188608 -0.206667 -0.390367
v -1.249787 -0.206667 -0.004096
v -1.188608 -0.206667 0.382176
v -1.011058 -0.206667 0.730636
v -0.734518 -0.206667 1.007176
v -0.386058 -0.206667 1.184725
v 0.000213 -0.206667 1.245905
v 0.386485 -0.206667 1.184725
v 0.734945 -0.206667 1.007176
v 1.011485 -0.206667 0.730636
v 1.189034 -0.206667 0.382176
v 1.250213 -0.206667 -0.004096
v 1.189035 0.206667 -0.390367
v 1.011485 0.206667 -0.738828
v 0.734945 0.206667 -1.015367
v 0.386485 0.206667 -1.192917
v 0.000213 0.206667 -1.254096
v -0.386058 0.206667 -1.192917
v -0.734518 0.206667 -1.015367
v -1.011058 0.206667 -0.738827
v -1.188608 0.206667 -0.390367
v -1.249787 0.206667 -0.004096
v -1.188608 0.206667 0.382176
v -1.011058 0.206667 0.730636
v -0.734518 0.206667 1.007176
v -0.386058 0.206667 1.184725
v 0.000213 0.206667 1.245905
v 0.386485 0.206667 1.184725
v 0.734945 0.206667 1.007176
v 1.011485 0.206667 0.730636
v 1.189034 0.206667 0.382176
v 1.250213 0.206667 -0.004096
v 0.000213 -0.206667 -0.004096
v 0.000213 0.206667 -0.004096
v 0.212157 0.126162 0.998094
v 0.432948 0.126162 0.920730
v 0.212157 0.396344 0.998094
v 0.432948 0.396344 0.920730
v -0.468359 0.396344 -0.921060
v -0.283288 0.396344 -0.985852
v -0.468359 0.126162 -0.921060
v -0.283288 0.126162 -0.985852
v 0.023657 0.396344 -0.167656
v -0.176357 0.396344 -0.097572
v -0.176357 0.126162 -0.097572
v 0.023657 0.126162 -0.167656
v -0.032505 0.396344 -0.317000
v -0.229667 0.396344 -0.247917
v -0.229667 0.126162 -0.247917
v -0.032505 0.126162 -0.317000
v -0.149444 0.396344 -0.629055
v -0.341011 0.396344 -0.561924
v -0.341011 0.126162 -0.561924
v -0.149444 0.126162 -0.629055
v 0.229113 0.126162 -0.276093
v 0.229113 0.396344 -0.276093
v 0.172951 0.126162 -0.425438
v 0.172951 0.396344 -0.425438
v 0.449862 0.126162 -0.386839
v 0.449862 0.396344 -0.386839
v 0.305867 0.126162 -0.500016
v 0.305867 0.396344 -0.500016
vt 0.892507 0.477731
vt 0.872228 0.437930
vt 0.840641 0.406343
vt 0.800840 0.386063
vt 0.756720 0.379076
vt 0.712600 0.386064
vt 0.672798 0.406343
vt 0.641212 0.437930
vt 0.620932 0.477731
vt 0.613944 0.521851
vt 0.620932 0.565971
vt 0.641212 0.605772
vt 0.672798 0.637359
vt 0.712600 0.657638
vt 0.756720 0.664626
vt 0.800840 0.657638
vt 0.840641 0.637359
vt 0.872227 0.605772
vt 0.892507 0.565971
vt 0.899495 0.521851
vt 0.907923 0.984523
vt 0.908331 0.936025
vt 0.908738 0.887527
vt 0.909146 0.839029
vt 0.909554 0.790531
vt 0.909962 0.742033
vt 0.910370 0.693535
vt 0.910777 0.645037
vt 0.911185 0.596539
vt 0.911593 0.548041
vt 0.912001 0.499543
vt 0.912408 0.451045
vt 0.912817 0.402547
vt 0.913224 0.354049
vt 0.913632 0.305551
vt 0.914039 0.257053
vt 0.914447 0.208555
vt 0.914855 0.160057
vt 0.915263 0.111558
vt 0.915671 0.063061
vt 0.916078 0.014563
vt 0.960047 0.980840
vt 0.960455 0.932342
vt 0.960862 0.883844
vt 0.961270 0.835346
vt 0.961677 0.786848
vt 0.962086 0.738350
vt 0.962493 0.689852
vt 0.962901 0.641354
vt 0.963309 0.592856
vt 0.963717 0.544358
vt 0.964125 0.495860
vt 0.964532 0.447362
vt 0.964940 0.398864
vt 0.965348 0.350366
vt 0.965756 0.301867
vt 0.966164 0.253370
vt 0.966571 0.204871
vt 0.966979 0.156374
vt 0.967387 0.107876
vt 0.967795 0.059378
vt 0.968202 0.010880
vt 0.892507 0.799259
vt 0.872228 0.759458
vt 0.840641 0.727871
vt 0.800840 0.707592
vt 0.756720 0.700604
vt 0.712600 0.707592
vt 0.672798 0.727871
vt 0.641212 0.759458
vt 0.620932 0.799259
vt 0.613944 0.843379
vt 0.620932 0.887499
vt 0.641212 0.927300
vt 0.672798 0.958886
vt 0.712600 0.979166
vt 0.756720 0.986154
vt 0.800840 0.979166
vt 0.840641 0.958886
vt 0.872227 0.927300
vt 0.892507 0.887499
vt 0.899495 0.843379
vt 0.756720 0.516140
vt 0.756720 0.837668
vt 0.178164 0.058723
vt 0.206632 0.058405
vt 0.207000 0.091282
vt 0.178532 0.091600
vt 0.205379 0.232777
vt 0.179590 0.233066
vt 0.180384 0.339387
vt 0.204245 0.339116
vt 0.204615 0.371996
vt 0.180754 0.372265
vt 0.333379 0.192962
vt 0.308738 0.192705
vt 0.307084 0.057517
vt 0.334284 0.057799
vt 0.153486 0.058211
vt 0.152606 0.198032
vt 0.120136 0.197668
vt 0.121017 0.058009
vt 0.063679 0.194770
vt 0.062105 0.056528
vt 0.094231 0.056163
vt 0.095804 0.194404
vt 0.205156 0.252192
vt 0.179735 0.252478
vt 0.063894 0.213739
vt 0.096020 0.213374
vt 0.333255 0.211509
vt 0.308966 0.211254
vt 0.118605 0.255097
vt 0.151074 0.255804
vt 0.150736 0.277721
vt 0.118267 0.277193
vt 0.204739 0.292744
vt 0.180037 0.293019
vt 0.064345 0.253358
vt 0.096470 0.252992
vt 0.332996 0.250244
vt 0.309396 0.249999
vt 0.260505 0.323800
vt 0.260247 0.358294
vt 0.217823 0.358320
vt 0.217842 0.323827
vt 0.064861 0.298671
vt 0.096986 0.298305
vt 0.332699 0.294547
vt 0.309902 0.294303
vt 0.151864 0.226156
vt 0.119395 0.225377
vt 0.282212 0.214975
vt 0.281984 0.196425
vt 0.290251 0.324379
vt 0.289826 0.358874
vt 0.233384 0.236648
vt 0.233161 0.256064
vt 0.264728 0.217866
vt 0.253468 0.199792
vt 0.263234 0.240150
vt 0.251462 0.259075
vt 0.338909 0.324886
vt 0.338535 0.359381
vt 0.149370 0.369467
vt 0.116901 0.368987
vn 0.951057 0.000000 -0.309016
vn 0.809017 0.000000 -0.587785
vn 0.809017 0.000000 -0.587785
vn 0.951057 0.000000 -0.309016
vn 0.587785 0.000000 -0.809017
vn 0.587785 0.000000 -0.809017
vn 0.309017 0.000000 -0.951057
vn 0.309017 0.000000 -0.951057
vn -0.000000 0.000000 -1.000000
vn -0.000000 0.000000 -1.000000
vn -0.309017 0.000000 -0.951057
vn -0.309017 0.000000 -0.951057
vn -0.587785 0.000000 -0.809017
vn -0.587785 0.000000 -0.809017
vn -0.809017 0.000000 -0.587785
vn -0.809017 0.000000 -0.587785
vn -0.951057 0.000000 -0.309017
vn -0.951057 0.000000 -0.309017
vn -1.000000 0.000000 0.000000
vn -1.000000 0.000000 0.000000
vn -0.951057 0.000000 0.309017
vn -0.951057 0.000000 0.309017
vn -0.809017 0.000000 0.587785
vn -0.809017 0.000000 0.587785
vn -0.587785 0.000000 0.809017
vn -0.587785 0.000000 0.809017
vn -0.309017 0.000000 0.951057
vn -0.309017 0.000000 0.951057
vn 0.000000 0.000000 1.000000
vn 0.000000 0.000000 1.000000
vn 0.309017 0.000000 0.951057
vn 0.309017 0.000000 0.951057
vn 0.587785 0.000000 0.809017
vn 0.587785 0.000000 0.809017
vn 0.809017 0.000000 0.587785
vn 0.809017 0.000000 0.587785
vn 0.951057 0.000000 0.309017
vn 0.951057 0.000000 0.309017
vn 1.000000 0.000000 0.000001
vn 1.000000 0.000000 0.000001
vn 0.000000 -1.000000 0.000000
vn 0.000000 -1.000000 0.000000
vn 0.000000 -1.000000 -0.000000
vn 0.000000 -1.000000 -0.000000
vn 0.000000 -1.000000 -0.000000
vn 0.000000 -1.000000 0.000000
vn 0.000000 -1.000000 0.000000
vn 0.000000 -1.000000 -0.000000
vn 0.000000 -1.000000 -0.000000
vn 0.000000 -1.000000 0.000000
vn 0.000000 -1.000000 -0.000000
vn 0.000000 -1.000000 -0.000000
vn 0.000000 -1.000000 0.000000
vn 0.000000 -1.000000 0.000000
vn 0.000000 -1.000000 0.000000
vn 0.000000 -1.000000 -0.000000
vn 0.000000 -1.000000 -0.000000
vn 0.000000 -1.000000 0.000000
vn 0.000000 -1.000000 -0.000000
vn 0.000000 -1.000000 0.000000
vn 0.000000 -1.000000 0.000000
vn 0.000000 1.000000 -0.000000
vn 0.000000 1.000000 0.000000
vn 0.000000 1.000000 -0.000000
vn 0.000000 1.000000 -0.000000
vn 0.000000 1.000000 -0.000000
vn 0.000000 1.000000 0.000000
vn 0.000000 1.000000 0.000000
vn 0.000000 1.000000 0.000000
vn 0.000000 1.000000 0.000000
vn 0.000000 1.000000 0.000000
vn 0.000000 1.000000 0.000000
vn 0.000000 1.000000 0.000000
vn 0.000000 1.000000 0.000000
vn 0.000000 1.000000 0.000000
vn 0.000000 1.000000 0.000000
vn 0.000000 1.000000 0.000000
vn 0.000000 1.000000 -0.000000
vn 0.000000 1.000000 0.000000
vn 0.000000 1.000000 -0.000000
vn 0.000000 1.000000 0.000000
vn 0.000000 1.000000 -0.000000
vn 0.330681 0.000000 0.943743
vn 0.330681 0.000000 0.943743
vn 0.330681 0.000000 0.943743
vn 0.330681 0.000000 0.943743
vn 0.000000 1.000000 0.000000
vn 0.000000 1.000000 0.000000
vn 0.000000 1.000000 0.000000
vn 0.000000 1.000000 0.000000
vn -0.330427 0.000000 -0.943832
vn -0.330427 0.000000 -0.943832
vn -0.330427 0.000000 -0.943832
vn -0.330427 0.000000 -0.943832
vn 0.000000 -1.000000 -0.000000
vn 0.000000 -1.000000 -0.000000
vn 0.000000 -1.000000 -0.000000
vn 0.000000 -1.000000 -0.000000
vn 0.936005 0.000000 -0.351988
vn 0.936005 0.000000 -0.351988
vn 0.936005 0.000000 -0.351988
vn 0.936005 0.000000 -0.351988
vn -0.942501 0.000000 0.334202
vn -0.942501 0.000000 0.334203
vn -0.942501 0.000000 0.334203
vn -0.942501 0.000000 0.334202
vn 0.000000 1.000000 -0.000000
vn 0.000000 1.000000 -0.000000
vn -0.942502 0.000000 0.334202
vn -0.942502 0.000000 0.334202
vn 0.000000 -1.000000 -0.000000
vn 0.000000 -1.000000 -0.000000
vn 0.617951 0.000000 -0.786217
vn 0.617951 0.000000 -0.786217
vn 0.632708 0.000000 -0.774391
vn 0.632708 0.000000 -0.774391
vn 0.000000 1.000000 -0.000000
vn 0.000000 1.000000 0.000000
vn -0.942501 0.000000 0.334204
vn -0.942501 0.000000 0.334204
vn 0.000000 -1.000000 -0.000000
vn 0.000000 -1.000000 0.000000
vn 0.936409 0.000000 -0.350910
vn 0.936409 0.000000 -0.350910
vn 0.936409 0.000000 -0.350910
vn 0.936409 0.000000 -0.350910
vn 0.000000 1.000000 -0.000000
vn 0.000000 1.000000 0.000000
vn -0.942500 0.000000 0.334205
vn -0.942500 0.000000 0.334205
vn 0.000000 -1.000000 -0.000000
vn 0.000000 -1.000000 0.000000
vn 0.466765 0.000000 0.884381
vn 0.466765 0.000000 0.884381
vn 0.457335 0.000000 0.889295
vn 0.457335 0.000000 0.889295
vn 0.000000 -1.000000 0.000000
vn 0.000000 -1.000000 0.000000
vn -0.466768 0.000000 -0.884380
vn -0.466768 0.000000 -0.884380
vn -0.466768 0.000000 -0.884380
vn -0.466768 0.000000 -0.884380
vn 0.000000 1.000000 -0.000000
vn 0.000000 1.000000 -0.000000
vn 0.448417 0.000000 0.893825
vn 0.448417 0.000000 0.893825
vn 0.000000 -1.000000 0.000000
vn 0.000000 -1.000000 0.000000
vn 0.000000 1.000000 -0.000000
vn 0.000000 1.000000 -0.000000
vn -0.533991 0.000000 0.845490
vn -0.533991 0.000000 0.845490
vn -0.533991 0.000000 0.845490
vn -0.533991 0.000000 0.845490
vn 0.636213 0.000000 -0.771513
vn 0.636213 0.000000 -0.771513
s 1
g UWV_Symbol_ExampleToken
usemtl initialShadingGroup
f 1/21/1 2/22/2 22/43/3 21/42/4
f 2/22/2 3/23/5 23/44/6 22/43/3
f 3/23/5 4/24/7 24/45/8 23/44/6
f 4/24/7 5/25/9 25/46/10 24/45/8
f 5/25/9 6/26/11 26/47/12 25/46/10
f 6/26/11 7/27/13 27/48/14 26/47/12
f 7/27/13 8/28/15 28/49/16 27/48/14
f 8/28/15 9/29/17 29/50/18 28/49/16
f 9/29/17 10/30/19 30/51/20 29/50/18
f 10/30/19 11/31/21 31/52/22 30/51/20
f 11/31/21 12/32/23 32/53/24 31/52/22
f 12/32/23 13/33/25 33/54/26 32/53/24
f 13/33/25 14/34/27 34/55/28 33/54/26
f 14/34/27 15/35/29 35/56/30 34/55/28
f 15/35/29 16/36/31 36/57/32 35/56/30
f 16/36/31 17/37/33 37/58/34 36/57/32
f 17/37/33 18/38/35 38/59/36 37/58/34
f 18/38/35 19/39/37 39/60/38 38/59/36
f 19/39/37 20/40/39 40/61/40 39/60/38
f 20/40/39 1/41/1 21/62/4 40/61/40
s 2
f 2/2/41 1/1/42 41/83/43
f 3/3/44 2/2/41 41/83/43
f 4/4/45 3/3/44 41/83/43
f 5/5/46 4/4/45 41/83/43
f 6/6/47 5/5/46 41/83/43
f 7/7/48 6/6/47 41/83/43
f 8/8/49 7/7/48 41/83/43
f 9/9/50 8/8/49 41/83/43
f 10/10/51 9/9/50 41/83/43
f 11/11/52 10/10/51 41/83/43
f 12/12/53 11/11/52 41/83/43
f 13/13/54 12/12/53 41/83/43
f 14/14/55 13/13/54 41/83/43
f 15/15/56 14/14/55 41/83/43
f 16/16/57 15/15/56 41/83/43
f 17/17/58 16/16/57 41/83/43
f 18/18/59 17/17/58 41/83/43
f 19/19/60 18/18/59 41/83/43
f 20/20/61 19/19/60 41/83/43
f 1/1/42 20/20/61 41/83/43
s 3
f 21/81/62 22/80/63 42/84/64
f 22/80/63 23/79/65 42/84/64
f 23/79/65 24/78/66 42/84/64
f 24/78/66 25/77/67 42/84/64
f 25/77/67 26/76/68 42/84/64
f 26/76/68 27/75/69 42/84/64
f 27/75/69 28/74/70 42/84/64
f 28/74/70 29/73/71 42/84/64
f 29/73/71 30/72/72 42/84/64
f 30/72/72 31/71/73 42/84/64
f 31/71/73 32/70/74 42/84/64
f 32/70/74 33/69/75 42/84/64
f 33/69/75 34/68/76 42/84/64
f 34/68/76 35/67/77 42/84/64
f 35/67/77 36/66/78 42/84/64
f 36/66/78 37/65/79 42/84/64
f 37/65/79 38/64/80 42/84/64
f 38/64/80 39/63/81 42/84/64
f 39/63/81 40/82/82 42/84/64
f 40/82/82 21/81/62 42/84/64
s off
f 43/85/83 44/86/84 46/87/85 45/88/86
s 4
f 45/88/87 46/87/88 51/89/89 52/90/90
s off
f 47/91/91 48/92/92 50/93/93 49/94/94
s 5
f 53/95/95 54/96/96 44/97/97 43/98/98
s off
f 44/99/99 54/100/100 51/101/101 46/102/102
s 6
f 53/103/103 43/104/104 45/105/105 52/106/106
s 4
f 52/90/90 51/89/89 55/107/107 56/108/108
s 6
f 57/109/109 53/103/103 52/106/106 56/110/110
s 5
f 57/111/111 58/112/112 54/96/96 53/95/95
s 7
f 68/113/113 67/114/114 69/115/115 70/116/116
s 4
f 56/108/108 55/107/107 59/117/117 60/118/118
s 6
f 61/119/119 57/109/109 56/110/110 60/120/120
s 5
f 61/121/121 62/122/122 58/112/112 57/111/111
s off
f 55/123/123 58/124/124 62/125/125 59/126/126
s 4
f 60/118/118 59/117/117 48/92/127 47/91/128
s 6
f 49/127/129 61/119/119 60/120/120 47/128/130
s 5
f 49/129/131 50/130/132 62/122/122 61/121/121
s 8
f 51/101/133 54/100/134 63/131/135 64/132/136
s 5
f 54/96/96 58/112/112 65/133/137 63/134/138
s off
f 58/124/139 55/123/140 66/135/141 65/136/142
s 4
f 55/107/107 51/89/89 64/137/143 66/138/144
s 8
f 64/132/136 63/131/135 67/114/145 68/113/146
s 5
f 63/134/138 65/133/137 69/139/147 67/140/148
s 4
f 66/138/144 64/137/143 68/141/149 70/142/150
s off
f 65/136/151 66/135/152 59/143/153 62/144/154
s 4
f 66/138/144 70/142/150 48/92/127 59/117/117
s 7
f 70/116/116 69/115/115 50/145/155 48/146/156
s 5
f 69/139/147 65/133/137 62/122/122 50/130/132
