# This file uses centimeters as units for non-parametric coordinates.

mtllib Rune5.mtl
g default
v 0.043741 0.116899 0.709793
v 0.321625 0.116899 0.582271
v 0.043741 0.392949 0.709793
v 0.321625 0.392949 0.582271
v 0.043513 0.393025 -0.871420
v 0.321292 0.393025 -1.006336
v 0.043513 0.116975 -0.871420
v 0.321292 0.116975 -1.006336
v 0.043570 0.393025 -0.215096
v 0.043570 0.116975 -0.215096
v 0.321292 0.116975 -0.347183
v 0.321292 0.393025 -0.347183
v 0.043167 0.393025 -0.013467
v 0.043167 0.116975 -0.013467
v 0.321292 0.116975 -0.143966
v 0.321292 0.393025 -0.143966
v 0.043513 0.393025 -0.696070
v 0.043513 0.116975 -0.696070
v 0.321292 0.116975 -0.830154
v 0.321292 0.393025 -0.830154
v -0.442383 0.116975 -0.632544
v -0.442383 0.116975 -0.457193
v -0.442383 0.393025 -0.457193
v -0.442383 0.393025 -0.632544
v -0.637827 0.116975 -0.532107
v -0.637827 0.116975 -0.356757
v -0.637827 0.393025 -0.356757
v -0.637827 0.393025 -0.532107
v -0.442383 0.393025 0.063992
v -0.442383 0.116975 0.063992
v -0.637827 0.393025 0.164428
v -0.637827 0.116975 0.164428
v -0.442383 0.393025 0.229576
v -0.442383 0.116975 0.229576
v -0.637827 0.393025 0.330012
v -0.637827 0.116975 0.330012
v -0.175911 0.116824 1.033390
v 0.709948 0.116824 0.628314
v -0.175911 0.392873 1.033390
v 0.709948 0.392873 0.628314
v -0.260838 0.392873 0.849998
v 0.625022 0.392873 0.443306
v -0.260838 0.116824 0.849998
v 0.625022 0.116824 0.443306
v 0.406885 0.116824 0.766895
v 0.406885 0.392873 0.766895
v 0.128896 0.116824 0.894011
v 0.128896 0.392873 0.894011
v 1.190142 -0.206667 -0.387293
v 1.012592 -0.206667 -0.735753
v 0.736052 -0.206667 -1.012293
v 0.387592 -0.206667 -1.189842
v 0.001320 -0.206667 -1.251022
v -0.384951 -0.206667 -1.189842
v -0.733412 -0.206667 -1.012293
v -1.009951 -0.206667 -0.735753
v -1.187501 -0.206667 -0.387293
v -1.248680 -0.206667 -0.001021
v -1.187501 -0.206667 0.385250
v -1.009951 -0.206667 0.733711
v -0.733411 -0.206667 1.010250
v -0.384951 -0.206667 1.187800
v 0.001320 -0.206667 1.248979
v 0.387591 -0.206667 1.187800
v 0.736052 -0.206667 1.010250
v 1.012591 -0.206667 0.733710
v 1.190141 -0.206667 0.385250
v 1.251320 -0.206667 -0.001021
v 1.190142 0.206667 -0.387293
v 1.012592 0.206667 -0.735753
v 0.736052 0.206667 -1.012293
v 0.387592 0.206667 -1.189842
v 0.001320 0.206667 -1.251022
v -0.384951 0.206667 -1.189842
v -0.733412 0.206667 -1.012293
v -1.009951 0.206667 -0.735753
v -1.187501 0.206667 -0.387293
v -1.248680 0.206667 -0.001021
v -1.187501 0.206667 0.385250
v -1.009951 0.206667 0.733711
v -0.733411 0.206667 1.010250
v -0.384951 0.206667 1.187800
v 0.001320 0.206667 1.248979
v 0.387591 0.206667 1.187800
v 0.736052 0.206667 1.010250
v 1.012591 0.206667 0.733710
v 1.190141 0.206667 0.385250
v 1.251320 0.206667 -0.001021
v 0.001320 -0.206667 -0.001021
v 0.001320 0.206667 -0.001021
vt 0.271214 0.619053
vt 0.270216 0.046586
vt 0.129117 0.414546
vt 0.164340 0.421378
vt 0.239022 0.263592
vt 0.208370 0.602525
vt 0.129063 0.359819
vt 0.270524 0.228228
vt 0.131943 0.169909
vt 0.098334 0.184714
vt 0.238961 0.228283
vt 0.319493 0.555164
vt 0.130263 0.280992
vt 0.096665 0.296346
vt 0.270393 0.152860
vt 0.190085 0.527366
vt 0.238829 0.152915
vt 0.149115 0.497030
vt 0.271061 0.536355
vt 0.097038 0.271938
vt 0.270352 0.129624
vt 0.184448 0.504195
vt 0.238789 0.129679
vt 0.168090 0.574853
vt 0.282808 0.357788
vt 0.095776 0.354352
vt 0.270489 0.208083
vt 0.203483 0.582436
vt 0.238926 0.208138
vt 0.187860 0.332023
vt 0.283818 0.423805
vt 0.106061 0.561095
vt 0.239130 0.325500
vt 0.270737 0.350570
vt 0.211841 0.299259
vt 0.239209 0.370675
vt 0.239174 0.350625
vt 0.284790 0.487352
vt 0.091603 0.501667
vt 0.239313 0.430267
vt 0.212799 0.236663
vt 0.189445 0.228479
vt 0.239389 0.474326
vt 0.239346 0.449200
vt 0.213104 0.216776
vt 0.319302 0.150704
vt 0.319466 0.191189
vt 0.133717 0.391179
vt 0.095095 0.383742
vt 0.285858 0.126427
vt 0.168782 0.153630
vt 0.122054 0.147627
vt 0.158919 0.131448
vt 0.319778 0.268365
vt 0.319878 0.292954
vt 0.286533 0.293090
vt 0.207340 0.405356
vt 0.319203 0.126292
vt 0.061639 0.200846
vt 0.088433 0.162383
vt 0.051779 0.178470
vt 0.168940 0.397962
vt 0.319615 0.228112
vt 0.286121 0.191324
vt 0.286271 0.228247
vt 0.286434 0.268500
vt 0.320032 0.333264
vt 0.238653 0.046641
vt 0.286688 0.333399
vt 0.202789 0.428807
vt 0.319029 0.085791
vt 0.090499 0.407009
vt 0.285685 0.085926
vt 0.239650 0.619108
vt 0.285957 0.150839
vt 0.270953 0.474271
vt 0.130682 0.256776
vt 0.087009 0.482787
vt 0.239498 0.536410
vt 0.318448 0.486837
vt 0.154754 0.520010
vt 0.270909 0.449146
vt 0.270876 0.430212
vt 0.061939 0.476757
vt 0.066531 0.495637
vt 0.270772 0.370620
vt 0.080989 0.555064
vt 0.317476 0.423290
vt 0.085854 0.575058
vt 0.110925 0.581089
vt 0.211518 0.320319
vt 0.270694 0.325445
vt 0.172955 0.594847
vt 0.320389 0.613809
vt 0.270586 0.263537
vt 0.095453 0.375512
vt 0.316466 0.357273
vt 0.189141 0.248366
vt 0.285834 0.555679
vt 0.188182 0.310962
vt 0.286731 0.614323
vt 0.129385 0.338759
vt 0.916869 0.951496
vt 0.917030 0.907737
vt 0.963226 0.908032
vt 0.963070 0.951793
vt 0.917391 0.864057
vt 0.963593 0.864355
vt 0.917723 0.820366
vt 0.963919 0.820661
vt 0.917909 0.776616
vt 0.964107 0.776912
vt 0.918206 0.732911
vt 0.964405 0.733207
vt 0.918533 0.689218
vt 0.964728 0.689513
vt 0.918793 0.645498
vt 0.964991 0.645794
vt 0.919060 0.601781
vt 0.965260 0.602078
vt 0.919327 0.558064
vt 0.965527 0.558360
vt 0.919627 0.514359
vt 0.965832 0.514658
vt 0.919933 0.470658
vt 0.966132 0.470955
vt 0.920199 0.426941
vt 0.966400 0.427238
vt 0.920469 0.383225
vt 0.966665 0.383520
vt 0.920732 0.339506
vt 0.966928 0.339801
vt 0.921055 0.295811
vt 0.967254 0.296108
vt 0.921354 0.252106
vt 0.967548 0.252401
vt 0.921539 0.208357
vt 0.967740 0.208654
vt 0.921870 0.164665
vt 0.968065 0.164960
vt 0.922230 0.120985
vt 0.968433 0.121283
vt 0.922391 0.077226
vt 0.968591 0.077522
vt 0.867174 0.377300
vt 0.888560 0.419273
vt 0.745365 0.459777
vt 0.833864 0.343991
vt 0.791892 0.322605
vt 0.745365 0.315236
vt 0.698838 0.322605
vt 0.656866 0.343991
vt 0.623556 0.377300
vt 0.602171 0.419273
vt 0.594801 0.465799
vt 0.602171 0.512326
vt 0.623556 0.554299
vt 0.656866 0.587608
vt 0.698838 0.608994
vt 0.745365 0.616363
vt 0.791892 0.608994
vt 0.833864 0.587608
vt 0.867174 0.554299
vt 0.888560 0.512326
vt 0.895929 0.465799
vt 0.888560 0.843808
vt 0.867174 0.885780
vt 0.745365 0.791259
vt 0.833864 0.919090
vt 0.791892 0.940476
vt 0.745365 0.947845
vt 0.698838 0.940476
vt 0.656866 0.919090
vt 0.623556 0.885780
vt 0.602171 0.843808
vt 0.594801 0.797281
vt 0.602171 0.750755
vt 0.623556 0.708782
vt 0.656866 0.675473
vt 0.698838 0.654087
vt 0.745365 0.646718
vt 0.791892 0.654087
vt 0.833864 0.675473
vt 0.867174 0.708782
vt 0.888560 0.750755
vt 0.895929 0.797281
vn 0.000055 1.000000 0.000185
vn 0.000089 1.000000 0.000145
vn 0.000032 1.000000 0.000070
vn 0.000030 1.000000 0.000065
vn -0.439628 0.000000 -0.898180
vn -0.436892 0.000000 -0.899514
vn -0.436892 0.000000 -0.899514
vn -0.439628 0.000000 -0.898180
vn -0.000030 -1.000000 -0.000065
vn -0.000032 -1.000000 -0.000070
vn -0.000089 -1.000000 -0.000145
vn -0.000055 -1.000000 -0.000185
vn 1.000000 0.000000 -0.000458
vn 1.000000 0.000000 -0.000358
vn 1.000000 0.000000 -0.000358
vn 1.000000 0.000000 -0.000458
vn -1.000000 0.000000 0.000794
vn -1.000000 0.000000 0.000794
vn -1.000000 0.000000 0.000794
vn -1.000000 0.000000 0.000794
vn -1.000000 0.000000 0.000117
vn -1.000000 0.000000 0.000117
vn -1.000000 0.000000 0.000117
vn -1.000000 0.000000 0.000117
vn 0.000000 -1.000000 -0.000000
vn 0.000000 -1.000000 -0.000000
vn 0.000000 -1.000000 -0.000000
vn 0.000000 -1.000000 -0.000000
vn 1.000000 0.000000 0.000000
vn 1.000000 0.000000 0.000000
vn 1.000000 0.000000 0.000000
vn 1.000000 0.000000 0.000000
vn 0.000000 1.000000 0.000000
vn 0.000000 1.000000 0.000000
vn 0.000000 1.000000 -0.000000
vn 0.000000 1.000000 -0.000000
vn -1.000000 0.000000 0.000000
vn -1.000000 0.000000 0.000000
vn -1.000000 0.000000 0.000000
vn -1.000000 0.000000 0.000000
vn 0.000000 -1.000000 0.000000
vn 0.000000 -1.000000 0.000000
vn 1.000000 0.000000 0.000000
vn 1.000000 0.000000 0.000000
vn 0.000000 1.000000 0.000000
vn 0.000000 1.000000 0.000000
vn 0.000000 -1.000000 0.000000
vn 0.000000 -1.000000 0.000000
vn 0.441187 0.000000 0.897415
vn 0.441187 0.000000 0.897415
vn 0.441187 0.000000 0.897415
vn 0.441187 0.000000 0.897415
vn 0.000000 1.000000 0.000000
vn 0.000000 1.000000 0.000000
vn -0.445786 0.000000 -0.895140
vn -0.445786 0.000000 -0.895140
vn 0.000000 -1.000000 0.000000
vn 0.000000 -1.000000 0.000000
vn 0.450339 0.000000 0.892858
vn 0.450339 0.000000 0.892858
vn 0.457068 0.000000 0.889432
vn 0.457068 0.000000 0.889432
vn 0.000000 1.000000 0.000000
vn 0.000000 1.000000 0.000000
vn -0.457068 0.000000 -0.889432
vn -0.457068 0.000000 -0.889432
vn 1.000000 0.000000 0.000000
vn 1.000000 0.000000 0.000000
vn 1.000000 0.000000 0.000000
vn 1.000000 0.000000 0.000000
vn 0.000000 1.000000 0.000000
vn 0.000000 1.000000 0.000000
vn -1.000000 0.000000 0.000000
vn -1.000000 0.000000 0.000000
vn 0.000000 -1.000000 0.000000
vn 0.000000 -1.000000 0.000000
vn 0.000000 1.000000 0.000000
vn 0.000000 1.000000 0.000000
vn -1.000000 0.000000 0.000000
vn -1.000000 0.000000 0.000000
vn 0.000000 -1.000000 0.000000
vn 0.000000 -1.000000 0.000000
vn -0.498022 0.000000 -0.867164
vn -0.498022 0.000000 -0.867164
vn -0.498022 0.000000 -0.867164
vn -0.498022 0.000000 -0.867164
vn 0.447608 0.000000 0.894230
vn 0.447608 0.000000 0.894230
vn 0.415854 0.000000 0.909431
vn 0.415855 0.000000 0.909431
vn 0.415855 0.000000 0.909431
vn 0.415854 0.000000 0.909431
vn -0.000025 1.000000 0.000218
vn 0.000062 1.000000 0.000276
vn -0.000025 1.000000 0.000218
vn -0.418150 0.000000 -0.908378
vn -0.418150 0.000000 -0.908378
vn -0.418150 0.000000 -0.908378
vn -0.418150 0.000000 -0.908378
vn 0.000025 -1.000000 -0.000217
vn -0.000062 -1.000000 -0.000276
vn 0.000025 -1.000000 -0.000217
vn 0.908822 0.000000 -0.417184
vn 0.908822 0.000000 -0.417184
vn 0.908822 0.000000 -0.417184
vn 0.908822 0.000000 -0.417184
vn -0.907423 0.000000 0.420218
vn -0.907423 0.000000 0.420218
vn -0.907423 0.000000 0.420218
vn -0.907423 0.000000 0.420218
vn -0.416426 0.000000 -0.909170
vn -0.416426 0.000000 -0.909170
vn -0.416426 0.000000 -0.909170
vn -0.416426 0.000000 -0.909170
vn -0.000169 -1.000000 -0.000225
vn -0.000181 -1.000000 -0.000122
vn -0.000181 -1.000000 -0.000122
vn 0.415855 0.000000 0.909431
vn 0.415855 0.000000 0.909431
vn 0.415855 0.000000 0.909431
vn 0.415855 0.000000 0.909431
vn 0.000169 1.000000 0.000226
vn 0.000181 1.000000 0.000122
vn 0.000181 1.000000 0.000122
vn 0.951057 0.000000 -0.309016
vn 0.809017 0.000000 -0.587785
vn 0.809017 0.000000 -0.587785
vn 0.951057 0.000000 -0.309016
vn 0.587785 0.000000 -0.809017
vn 0.587785 0.000000 -0.809017
vn 0.309017 0.000000 -0.951057
vn 0.309017 0.000000 -0.951057
vn -0.000000 0.000000 -1.000000
vn -0.000000 0.000000 -1.000000
vn -0.309017 0.000000 -0.951057
vn -0.309017 0.000000 -0.951057
vn -0.587785 0.000000 -0.809017
vn -0.587785 0.000000 -0.809017
vn -0.809017 0.000000 -0.587785
vn -0.809017 0.000000 -0.587785
vn -0.951057 0.000000 -0.309017
vn -0.951057 0.000000 -0.309017
vn -1.000000 0.000000 0.000000
vn -1.000000 0.000000 0.000000
vn -0.951057 0.000000 0.309017
vn -0.951057 0.000000 0.309017
vn -0.809017 0.000000 0.587785
vn -0.809017 0.000000 0.587785
vn -0.587785 0.000000 0.809017
vn -0.587785 0.000000 0.809017
vn -0.309017 0.000000 0.951057
vn -0.309017 0.000000 0.951057
vn 0.000000 0.000000 1.000000
vn 0.000000 0.000000 1.000000
vn 0.309017 0.000000 0.951057
vn 0.309017 0.000000 0.951057
vn 0.587785 0.000000 0.809017
vn 0.587785 0.000000 0.809017
vn 0.809017 0.000000 0.587785
vn 0.809017 0.000000 0.587785
vn 0.951056 0.000000 0.309017
vn 0.951056 0.000000 0.309017
vn 1.000000 0.000000 0.000001
vn 1.000000 0.000000 0.000001
vn 0.000000 -1.000000 0.000000
vn 0.000000 -1.000000 0.000000
vn 0.000000 -1.000000 -0.000000
vn 0.000000 -1.000000 -0.000000
vn 0.000000 -1.000000 -0.000000
vn 0.000000 -1.000000 0.000000
vn 0.000000 -1.000000 0.000000
vn 0.000000 -1.000000 -0.000000
vn 0.000000 -1.000000 -0.000000
vn 0.000000 -1.000000 0.000000
vn 0.000000 -1.000000 -0.000000
vn 0.000000 -1.000000 -0.000000
vn 0.000000 -1.000000 0.000000
vn 0.000000 -1.000000 -0.000000
vn 0.000000 -1.000000 -0.000000
vn 0.000000 -1.000000 -0.000000
vn 0.000000 -1.000000 0.000000
vn 0.000000 -1.000000 0.000000
vn 0.000000 -1.000000 -0.000000
vn 0.000000 -1.000000 0.000000
vn 0.000000 -1.000000 0.000000
vn 0.000000 1.000000 -0.000000
vn 0.000000 1.000000 0.000000
vn 0.000000 1.000000 0.000000
vn 0.000000 1.000000 -0.000000
vn 0.000000 1.000000 -0.000000
vn 0.000000 1.000000 0.000000
vn 0.000000 1.000000 0.000000
vn 0.000000 1.000000 0.000000
vn 0.000000 1.000000 0.000000
vn 0.000000 1.000000 0.000000
vn 0.000000 1.000000 0.000000
vn 0.000000 1.000000 0.000000
vn 0.000000 1.000000 0.000000
vn 0.000000 1.000000 0.000000
vn 0.000000 1.000000 0.000000
vn 0.000000 1.000000 0.000000
vn 0.000000 1.000000 0.000000
vn 0.000000 1.000000 0.000000
vn 0.000000 1.000000 -0.000000
vn 0.000000 1.000000 0.000000
vn 0.000000 1.000000 -0.000000
s 1
g B_Symbol_B_Symbol
usemtl initialShadingGroup
f 3/3/1 4/4/2 16/22/3 13/18/4
s 2
f 5/5/5 6/11/6 8/8/7 7/95/8
s 3
f 14/77/9 15/20/10 2/10/11 1/9/12
s 4
f 2/2/13 15/21/14 16/23/15 4/68/16
s off
f 14/19/17 1/1/18 3/74/19 13/79/20
f 18/101/21 10/99/22 9/12/23 17/94/24
s 3
f 18/102/25 19/26/26 11/14/27 10/13/28
s 4
f 12/17/29 11/15/30 19/27/31 20/29/32
s 1
f 9/81/33 12/16/34 20/28/35 17/24/36
s 3
f 10/13/28 11/14/27 15/20/10 14/77/9
s 4
f 16/23/15 15/21/14 11/15/30 12/17/29
s 1
f 13/18/4 16/22/3 12/16/34 9/81/33
s 6
f 25/34/37 26/86/38 27/36/39 28/37/40
s 3
f 7/7/41 8/96/42 19/26/26 18/102/25
s 4
f 20/29/32 19/27/31 8/8/43 6/11/44
s 1
f 17/24/36 20/28/35 6/6/45 5/93/46
s 3
f 7/7/41 18/102/25 22/100/47 21/30/48
s off
f 18/25/49 17/97/50 23/88/51 22/31/52
s 1
f 17/24/36 5/93/46 24/90/53 23/32/54
s 2
f 5/5/5 7/95/8 21/92/55 24/33/56
s 3
f 21/30/48 22/100/47 26/35/57 25/91/58
s 7
f 34/76/59 33/43/60 35/44/61 36/82/62
s 1
f 23/32/54 24/90/53 28/89/63 27/87/64
s 2
f 24/33/56 21/92/55 25/34/65 28/37/66
s off
f 22/31/67 23/88/68 29/80/69 30/38/70
s 1
f 23/32/54 27/87/64 31/85/71 29/39/72
s 6
f 27/36/39 26/86/38 32/83/73 31/40/74
s 3
f 26/35/57 22/100/47 30/98/75 32/41/76
s 1
f 29/39/72 31/85/71 35/84/77 33/78/78
s 6
f 31/40/74 32/83/73 36/82/79 35/44/80
s 3
f 32/41/76 30/98/75 34/42/81 36/45/82
s off
f 30/38/83 29/80/84 9/12/85 10/99/86
s 1
f 29/39/72 33/78/78 13/18/4 9/81/33
s 7
f 33/43/60 34/76/59 14/19/87 13/79/88
s 3
f 34/42/81 30/98/75 10/13/28 14/77/9
s 8
f 37/46/89 47/47/90 48/64/91 39/75/92
s 1
f 39/49/93 48/48/94 3/3/1 41/72/95
s off
f 41/50/96 3/73/97 1/71/98 43/58/99
s 3
f 43/51/100 1/9/12 47/52/101 37/53/102
s off
f 38/54/103 44/55/104 42/56/105 40/66/106
f 43/58/107 37/46/108 39/75/109 41/50/110
f 4/69/111 42/56/112 44/55/113 2/67/114
s 3
f 45/60/115 2/10/11 44/59/116 38/61/117
s 8
f 46/65/118 45/63/119 38/54/120 40/66/121
s 1
f 4/4/2 46/62/122 40/57/123 42/70/124
s 3
f 47/52/101 1/9/12 2/10/11 45/60/115
s 8
f 48/64/91 47/47/90 45/63/119 46/65/118
s 1
f 3/3/1 48/48/94 46/62/122 4/4/2
s 9
f 49/103/125 50/104/126 70/105/127 69/106/128
f 50/104/126 51/107/129 71/108/130 70/105/127
f 51/107/129 52/109/131 72/110/132 71/108/130
f 52/109/131 53/111/133 73/112/134 72/110/132
f 53/111/133 54/113/135 74/114/136 73/112/134
f 54/113/135 55/115/137 75/116/138 74/114/136
f 55/115/137 56/117/139 76/118/140 75/116/138
f 56/117/139 57/119/141 77/120/142 76/118/140
f 57/119/141 58/121/143 78/122/144 77/120/142
f 58/121/143 59/123/145 79/124/146 78/122/144
f 59/123/145 60/125/147 80/126/148 79/124/146
f 60/125/147 61/127/149 81/128/150 80/126/148
f 61/127/149 62/129/151 82/130/152 81/128/150
f 62/129/151 63/131/153 83/132/154 82/130/152
f 63/131/153 64/133/155 84/134/156 83/132/154
f 64/133/155 65/135/157 85/136/158 84/134/156
f 65/135/157 66/137/159 86/138/160 85/136/158
f 66/137/159 67/139/161 87/140/162 86/138/160
f 67/139/161 68/141/163 88/142/164 87/140/162
f 68/141/163 49/143/125 69/144/128 88/142/164
s 10
f 50/145/165 49/146/166 89/147/167
f 51/148/168 50/145/165 89/147/167
f 52/149/169 51/148/168 89/147/167
f 53/150/170 52/149/169 89/147/167
f 54/151/171 53/150/170 89/147/167
f 55/152/172 54/151/171 89/147/167
f 56/153/173 55/152/172 89/147/167
f 57/154/174 56/153/173 89/147/167
f 58/155/175 57/154/174 89/147/167
f 59/156/176 58/155/175 89/147/167
f 60/157/177 59/156/176 89/147/167
f 61/158/178 60/157/177 89/147/167
f 62/159/179 61/158/178 89/147/167
f 63/160/180 62/159/179 89/147/167
f 64/161/181 63/160/180 89/147/167
f 65/162/182 64/161/181 89/147/167
f 66/163/183 65/162/182 89/147/167
f 67/164/184 66/163/183 89/147/167
f 68/165/185 67/164/184 89/147/167
f 49/146/166 68/165/185 89/147/167
s 11
f 69/166/186 70/167/187 90/168/188
f 70/167/187 71/169/189 90/168/188
f 71/169/189 72/170/190 90/168/188
f 72/170/190 73/171/191 90/168/188
f 73/171/191 74/172/192 90/168/188
f 74/172/192 75/173/193 90/168/188
f 75/173/193 76/174/194 90/168/188
f 76/174/194 77/175/195 90/168/188
f 77/175/195 78/176/196 90/168/188
f 78/176/196 79/177/197 90/168/188
f 79/177/197 80/178/198 90/168/188
f 80/178/198 81/179/199 90/168/188
f 81/179/199 82/180/200 90/168/188
f 82/180/200 83/181/201 90/168/188
f 83/181/201 84/182/202 90/168/188
f 84/182/202 85/183/203 90/168/188
f 85/183/203 86/184/204 90/168/188
f 86/184/204 87/185/205 90/168/188
f 87/185/205 88/186/206 90/168/188
f 88/186/206 69/166/186 90/168/188
