# This file uses centimeters as units for non-parametric coordinates.

mtllib Symbol3.mtl
g default
v 0.018263 0.126162 1.075412
v 0.239055 0.126162 0.998048
v 0.018263 0.396344 1.075412
v 0.239055 0.396344 0.998048
v -0.662253 0.396344 -0.843742
v -0.477182 0.396344 -0.908533
v -0.662253 0.126162 -0.843742
v -0.477182 0.126162 -0.908533
v -0.170237 0.396344 -0.090338
v -0.370251 0.396344 -0.020254
v -0.370251 0.126162 -0.020254
v -0.170237 0.126162 -0.090338
v -0.226399 0.396344 -0.239682
v -0.423561 0.396344 -0.170598
v -0.423561 0.126162 -0.170598
v -0.226399 0.126162 -0.239682
v -0.343338 0.396344 -0.551737
v -0.534905 0.396344 -0.484606
v -0.534905 0.126162 -0.484606
v -0.343338 0.126162 -0.551737
v 0.035219 0.126162 -0.198774
v 0.035219 0.396344 -0.198774
v -0.020943 0.126162 -0.348120
v -0.020943 0.396344 -0.348120
v 0.255968 0.126162 -0.309521
v 0.255968 0.396344 -0.309521
v 0.111973 0.126162 -0.422698
v 0.111973 0.396344 -0.422698
vt 0.062105 0.056528
vt 0.307084 0.057517
vt 0.178532 0.091600
vt 0.121017 0.058009
vt 0.096986 0.298305
vt 0.204245 0.339116
vt 0.332699 0.294547
vt 0.149370 0.369467
vt 0.178164 0.058723
vt 0.180754 0.372265
vt 0.120136 0.197668
vt 0.095804 0.194404
vt 0.179590 0.233066
vt 0.063679 0.194770
vt 0.333379 0.192962
vt 0.308738 0.192705
vt 0.205156 0.252192
vt 0.096020 0.213374
vt 0.179735 0.252478
vt 0.063894 0.213739
vt 0.333255 0.211509
vt 0.260247 0.358294
vt 0.338909 0.324886
vt 0.217842 0.323827
vt 0.096470 0.252992
vt 0.180037 0.293019
vt 0.064345 0.253358
vt 0.332996 0.250244
vt 0.309396 0.249999
vt 0.217823 0.358320
vt 0.119395 0.225377
vt 0.281984 0.196425
vt 0.289826 0.358874
vt 0.233161 0.256064
vt 0.118605 0.255097
vt 0.253468 0.199792
vt 0.264728 0.217866
vt 0.118267 0.277193
vt 0.150736 0.277721
vt 0.309902 0.294303
vt 0.251462 0.259075
vt 0.290251 0.324379
vt 0.204739 0.292744
vt 0.282212 0.214975
vt 0.338535 0.359381
vt 0.263234 0.240150
vt 0.151074 0.255804
vt 0.233384 0.236648
vt 0.151864 0.226156
vt 0.260505 0.323800
vt 0.308966 0.211254
vt 0.205379 0.232777
vt 0.152606 0.198032
vt 0.116901 0.368987
vt 0.204615 0.371996
vt 0.180384 0.339387
vt 0.064861 0.298671
vt 0.153486 0.058211
vt 0.207000 0.091282
vt 0.094231 0.056163
vt 0.334284 0.057799
vt 0.206632 0.058405
vn 0.330681 0.000000 0.943743
vn 0.330681 0.000000 0.943743
vn 0.330681 0.000000 0.943743
vn 0.330681 0.000000 0.943743
vn -0.000000 1.000000 -0.000000
vn -0.000000 1.000000 -0.000000
vn 0.000000 1.000000 0.000000
vn 0.000000 1.000000 0.000000
vn -0.330427 0.000000 -0.943832
vn -0.330427 0.000000 -0.943832
vn -0.330427 0.000000 -0.943832
vn -0.330427 0.000000 -0.943832
vn -0.000000 -1.000000 -0.000000
vn -0.000000 -1.000000 -0.000000
vn 0.000000 -1.000000 0.000000
vn 0.000000 -1.000000 0.000000
vn 0.936005 0.000000 -0.351988
vn 0.936005 0.000000 -0.351988
vn 0.936005 0.000000 -0.351988
vn 0.936005 0.000000 -0.351988
vn -0.942501 0.000000 0.334202
vn -0.942501 0.000000 0.334203
vn -0.942501 0.000000 0.334203
vn -0.942501 0.000000 0.334202
vn 0.000000 1.000000 0.000000
vn 0.000000 1.000000 0.000000
vn -0.942501 0.000000 0.334202
vn -0.942501 0.000000 0.334202
vn 0.000000 -1.000000 0.000000
vn 0.000000 -1.000000 0.000000
vn 0.617950 0.000000 -0.786217
vn 0.617950 0.000000 -0.786217
vn 0.632708 0.000000 -0.774391
vn 0.632708 0.000000 -0.774391
vn 0.000000 1.000000 0.000000
vn -0.000000 1.000000 -0.000000
vn -0.942501 0.000000 0.334204
vn -0.942501 0.000000 0.334204
vn 0.000000 -1.000000 0.000000
vn 0.000000 -1.000000 0.000000
vn 0.936409 0.000000 -0.350910
vn 0.936409 0.000000 -0.350910
vn 0.936409 0.000000 -0.350910
vn 0.936409 0.000000 -0.350910
vn -0.000000 1.000000 -0.000000
vn -0.000000 1.000000 -0.000000
vn -0.942500 0.000000 0.334205
vn -0.942500 0.000000 0.334205
vn -0.000000 -1.000000 -0.000000
vn -0.000000 -1.000000 -0.000000
vn 0.466765 0.000000 0.884381
vn 0.466765 0.000000 0.884381
vn 0.457335 0.000000 0.889295
vn 0.457335 0.000000 0.889295
vn 0.000000 -1.000000 0.000000
vn 0.000000 -1.000000 0.000000
vn -0.466768 0.000000 -0.884380
vn -0.466768 0.000000 -0.884380
vn -0.466768 0.000000 -0.884380
vn -0.466768 0.000000 -0.884380
vn 0.000000 1.000000 0.000000
vn 0.000000 1.000000 0.000000
vn 0.448417 0.000000 0.893824
vn 0.448417 0.000000 0.893824
vn 0.000000 -1.000000 0.000000
vn 0.000000 -1.000000 0.000000
vn 0.000000 1.000000 0.000000
vn 0.000000 1.000000 0.000000
vn -0.533991 0.000000 0.845490
vn -0.533991 0.000000 0.845490
vn -0.533991 0.000000 0.845490
vn -0.533991 0.000000 0.845490
vn 0.636213 0.000000 -0.771513
vn 0.636213 0.000000 -0.771513
s off
g UVW_Symbol
usemtl initialShadingGroup
f 1/9/1 2/62/2 4/59/3 3/3/4
s 1
f 3/3/5 4/59/6 9/52/7 10/13/8
s off
f 5/56/9 6/6/10 8/55/11 7/10/12
s 2
f 11/15/13 12/16/14 2/2/15 1/61/16
s off
f 2/58/17 12/53/18 9/11/19 4/4/20
s 3
f 11/14/21 1/1/22 3/60/23 10/12/24
s 1
f 10/13/8 9/52/7 13/17/25 14/19/26
s 3
f 15/20/27 11/14/21 10/12/24 14/18/28
s 2
f 15/21/29 16/51/30 12/16/14 11/15/13
s 4
f 26/35/31 25/47/32 27/39/33 28/38/34
s 1
f 14/19/26 13/17/25 17/43/35 18/26/36
s 3
f 19/27/37 15/20/27 14/18/28 18/25/38
s 2
f 19/28/39 20/29/40 16/51/30 15/21/29
s off
f 13/50/41 16/22/42 20/30/43 17/24/44
s 1
f 18/26/36 17/43/35 6/6/45 5/56/46
s 3
f 7/57/47 19/27/37 18/25/38 5/5/48
s 2
f 7/7/49 8/40/50 20/29/40 19/28/39
s 5
f 9/11/51 12/53/52 21/49/53 22/31/54
s 2
f 12/16/14 16/51/30 23/44/55 21/32/56
s off
f 16/22/57 13/50/58 24/42/59 23/33/60
s 1
f 13/17/25 9/52/7 22/48/61 24/34/62
s 5
f 22/31/54 21/49/53 25/47/63 26/35/64
s 2
f 21/32/56 23/44/55 27/37/65 25/36/66
s 1
f 24/34/62 22/48/61 26/46/67 28/41/68
s off
f 23/33/69 24/42/70 17/23/71 20/45/72
s 1
f 24/34/62 28/41/68 6/6/45 17/43/35
s 4
f 28/38/34 27/39/33 8/8/73 6/54/74
s 2
f 27/37/65 23/44/55 20/29/40 8/40/50
