# This file uses centimeters as units for non-parametric coordinates.

mtllib Symbol5.mtl
g default
v 0.009088 0.116899 0.698745
v 0.286971 0.116899 0.571223
v 0.009088 0.392949 0.698745
v 0.286971 0.392949 0.571223
v 0.008860 0.393025 -0.882468
v 0.286638 0.393025 -1.017384
v 0.008860 0.116975 -0.882468
v 0.286638 0.116975 -1.017384
v 0.008916 0.393025 -0.226144
v 0.008916 0.116975 -0.226144
v 0.286638 0.116975 -0.358231
v 0.286638 0.393025 -0.358231
v 0.008513 0.393025 -0.024515
v 0.008513 0.116975 -0.024515
v 0.286638 0.116975 -0.155014
v 0.286638 0.393025 -0.155014
v 0.008860 0.393025 -0.707118
v 0.008860 0.116975 -0.707118
v 0.286638 0.116975 -0.841202
v 0.286638 0.393025 -0.841202
v -0.477036 0.116975 -0.643591
v -0.477036 0.116975 -0.468241
v -0.477036 0.393025 -0.468241
v -0.477036 0.393025 -0.643591
v -0.672481 0.116975 -0.543155
v -0.672481 0.116975 -0.367805
v -0.672481 0.393025 -0.367805
v -0.672481 0.393025 -0.543155
v -0.477036 0.393025 0.052944
v -0.477036 0.116975 0.052944
v -0.672481 0.393025 0.153380
v -0.672481 0.116975 0.153380
v -0.477036 0.393025 0.218528
v -0.477036 0.116975 0.218528
v -0.672481 0.393025 0.318964
v -0.672481 0.116975 0.318964
v -0.210565 0.116824 1.022342
v 0.675294 0.116824 0.617266
v -0.210565 0.392873 1.022342
v 0.675294 0.392873 0.617266
v -0.295491 0.392873 0.838951
v 0.590368 0.392873 0.432258
v -0.295491 0.116824 0.838951
v 0.590368 0.116824 0.432258
v 0.372231 0.116824 0.755847
v 0.372231 0.392873 0.755847
v 0.094242 0.116824 0.882964
v 0.094242 0.392873 0.882964
vt 0.271214 0.619053
vt 0.270216 0.046586
vt 0.129117 0.414546
vt 0.164340 0.421378
vt 0.239022 0.263592
vt 0.208370 0.602525
vt 0.129063 0.359819
vt 0.270524 0.228228
vt 0.131943 0.169909
vt 0.098334 0.184714
vt 0.238961 0.228283
vt 0.319493 0.555164
vt 0.130263 0.280992
vt 0.096665 0.296346
vt 0.270393 0.152860
vt 0.190085 0.527366
vt 0.238829 0.152915
vt 0.149115 0.497030
vt 0.271061 0.536355
vt 0.097038 0.271938
vt 0.270352 0.129624
vt 0.184448 0.504195
vt 0.238789 0.129679
vt 0.168090 0.574853
vt 0.282808 0.357788
vt 0.095776 0.354352
vt 0.270489 0.208083
vt 0.203483 0.582436
vt 0.238926 0.208138
vt 0.187860 0.332023
vt 0.283818 0.423805
vt 0.106061 0.561095
vt 0.239130 0.325500
vt 0.270737 0.350570
vt 0.211841 0.299259
vt 0.239209 0.370675
vt 0.239174 0.350625
vt 0.284790 0.487352
vt 0.091603 0.501667
vt 0.239313 0.430267
vt 0.212799 0.236663
vt 0.189445 0.228479
vt 0.239389 0.474326
vt 0.239346 0.449200
vt 0.213104 0.216776
vt 0.319302 0.150704
vt 0.319466 0.191189
vt 0.133717 0.391179
vt 0.095095 0.383742
vt 0.285858 0.126427
vt 0.168782 0.153630
vt 0.122054 0.147627
vt 0.158919 0.131448
vt 0.319778 0.268365
vt 0.319878 0.292954
vt 0.286533 0.293090
vt 0.207340 0.405356
vt 0.319203 0.126292
vt 0.061639 0.200846
vt 0.088433 0.162383
vt 0.051779 0.178470
vt 0.168940 0.397962
vt 0.319615 0.228112
vt 0.286121 0.191324
vt 0.286271 0.228247
vt 0.286434 0.268500
vt 0.320032 0.333264
vt 0.238653 0.046641
vt 0.286688 0.333399
vt 0.202789 0.428807
vt 0.319029 0.085791
vt 0.090499 0.407009
vt 0.285685 0.085926
vt 0.239650 0.619108
vt 0.285957 0.150839
vt 0.270953 0.474271
vt 0.130682 0.256776
vt 0.087009 0.482787
vt 0.239498 0.536410
vt 0.318448 0.486837
vt 0.154754 0.520010
vt 0.270909 0.449146
vt 0.270876 0.430212
vt 0.061939 0.476757
vt 0.066531 0.495637
vt 0.270772 0.370620
vt 0.080989 0.555064
vt 0.317476 0.423290
vt 0.085854 0.575058
vt 0.110925 0.581089
vt 0.211518 0.320319
vt 0.270694 0.325445
vt 0.172955 0.594847
vt 0.320389 0.613809
vt 0.270586 0.263537
vt 0.095453 0.375512
vt 0.316466 0.357273
vt 0.189141 0.248366
vt 0.285834 0.555679
vt 0.188182 0.310962
vt 0.286731 0.614323
vt 0.129385 0.338759
vn 0.000055 1.000000 0.000185
vn 0.000089 1.000000 0.000145
vn 0.000032 1.000000 0.000070
vn 0.000030 1.000000 0.000065
vn -0.439628 0.000000 -0.898180
vn -0.436890 0.000000 -0.899515
vn -0.436890 0.000000 -0.899515
vn -0.439628 0.000000 -0.898180
vn -0.000030 -1.000000 -0.000065
vn -0.000032 -1.000000 -0.000070
vn -0.000089 -1.000000 -0.000145
vn -0.000055 -1.000000 -0.000185
vn 1.000000 0.000000 -0.000458
vn 1.000000 0.000000 -0.000358
vn 1.000000 0.000000 -0.000358
vn 1.000000 0.000000 -0.000458
vn -1.000000 0.000000 0.000794
vn -1.000000 0.000000 0.000794
vn -1.000000 0.000000 0.000794
vn -1.000000 0.000000 0.000794
vn -1.000000 0.000000 0.000117
vn -1.000000 0.000000 0.000117
vn -1.000000 0.000000 0.000117
vn -1.000000 0.000000 0.000117
vn 0.000000 -1.000000 -0.000000
vn 0.000000 -1.000000 -0.000000
vn 0.000000 -1.000000 -0.000000
vn 0.000000 -1.000000 -0.000000
vn 1.000000 0.000000 0.000000
vn 1.000000 0.000000 0.000000
vn 1.000000 0.000000 0.000000
vn 1.000000 0.000000 0.000000
vn 0.000000 1.000000 0.000000
vn 0.000000 1.000000 0.000000
vn 0.000000 1.000000 -0.000000
vn 0.000000 1.000000 -0.000000
vn -1.000000 0.000000 0.000000
vn -1.000000 0.000000 0.000000
vn -1.000000 0.000000 0.000000
vn -1.000000 0.000000 0.000000
vn 0.000000 -1.000000 0.000000
vn 0.000000 -1.000000 0.000000
vn 1.000000 0.000000 0.000000
vn 1.000000 0.000000 0.000000
vn 0.000000 1.000000 0.000000
vn 0.000000 1.000000 0.000000
vn 0.000000 -1.000000 0.000000
vn 0.000000 -1.000000 0.000000
vn 0.441187 0.000000 0.897415
vn 0.441187 0.000000 0.897415
vn 0.441187 0.000000 0.897415
vn 0.441187 0.000000 0.897415
vn 0.000000 1.000000 0.000000
vn 0.000000 1.000000 0.000000
vn -0.445786 0.000000 -0.895140
vn -0.445786 0.000000 -0.895140
vn 0.000000 -1.000000 0.000000
vn 0.000000 -1.000000 0.000000
vn 0.450339 0.000000 0.892857
vn 0.450339 0.000000 0.892857
vn 0.457069 0.000000 0.889431
vn 0.457069 0.000000 0.889431
vn 0.000000 1.000000 0.000000
vn 0.000000 1.000000 0.000000
vn -0.457066 0.000000 -0.889433
vn -0.457066 0.000000 -0.889433
vn 1.000000 0.000000 0.000000
vn 1.000000 0.000000 0.000000
vn 1.000000 0.000000 0.000000
vn 1.000000 0.000000 0.000000
vn 0.000000 1.000000 0.000000
vn 0.000000 1.000000 0.000000
vn -1.000000 0.000000 0.000000
vn -1.000000 0.000000 0.000000
vn 0.000000 -1.000000 0.000000
vn 0.000000 -1.000000 0.000000
vn 0.000000 1.000000 0.000000
vn 0.000000 1.000000 0.000000
vn -1.000000 0.000000 0.000000
vn -1.000000 0.000000 0.000000
vn 0.000000 -1.000000 0.000000
vn 0.000000 -1.000000 0.000000
vn -0.498021 0.000000 -0.867165
vn -0.498021 0.000000 -0.867165
vn -0.498021 0.000000 -0.867165
vn -0.498021 0.000000 -0.867165
vn 0.447609 0.000000 0.894229
vn 0.447609 0.000000 0.894229
vn 0.415854 0.000000 0.909432
vn 0.415855 0.000000 0.909431
vn 0.415855 0.000000 0.909431
vn 0.415854 0.000000 0.909432
vn -0.000025 1.000000 0.000218
vn 0.000062 1.000000 0.000276
vn -0.000025 1.000000 0.000218
vn -0.418150 0.000000 -0.908378
vn -0.418150 0.000000 -0.908378
vn -0.418150 0.000000 -0.908378
vn -0.418150 0.000000 -0.908378
vn 0.000025 -1.000000 -0.000217
vn -0.000062 -1.000000 -0.000276
vn 0.000025 -1.000000 -0.000217
vn 0.908822 0.000000 -0.417183
vn 0.908822 0.000000 -0.417183
vn 0.908822 0.000000 -0.417183
vn 0.908822 0.000000 -0.417183
vn -0.907423 0.000000 0.420218
vn -0.907423 0.000000 0.420218
vn -0.907423 0.000000 0.420218
vn -0.907423 0.000000 0.420218
vn -0.416428 0.000000 -0.909169
vn -0.416428 0.000000 -0.909169
vn -0.416428 0.000000 -0.909169
vn -0.416428 0.000000 -0.909169
vn -0.000169 -1.000000 -0.000225
vn -0.000181 -1.000000 -0.000122
vn -0.000181 -1.000000 -0.000122
vn 0.415855 0.000000 0.909431
vn 0.415855 0.000000 0.909431
vn 0.415855 0.000000 0.909431
vn 0.415855 0.000000 0.909431
vn 0.000169 1.000000 0.000226
vn 0.000181 1.000000 0.000122
vn 0.000181 1.000000 0.000122
s 1
g B_Symbol1
usemtl initialShadingGroup
f 3/3/1 4/4/2 16/22/3 13/18/4
s 2
f 5/5/5 6/11/6 8/8/7 7/95/8
s 3
f 14/77/9 15/20/10 2/10/11 1/9/12
s 4
f 2/2/13 15/21/14 16/23/15 4/68/16
s off
f 14/19/17 1/1/18 3/74/19 13/79/20
f 18/101/21 10/99/22 9/12/23 17/94/24
s 3
f 18/102/25 19/26/26 11/14/27 10/13/28
s 4
f 12/17/29 11/15/30 19/27/31 20/29/32
s 1
f 9/81/33 12/16/34 20/28/35 17/24/36
s 3
f 10/13/28 11/14/27 15/20/10 14/77/9
s 4
f 16/23/15 15/21/14 11/15/30 12/17/29
s 1
f 13/18/4 16/22/3 12/16/34 9/81/33
s 6
f 25/34/37 26/86/38 27/36/39 28/37/40
s 3
f 7/7/41 8/96/42 19/26/26 18/102/25
s 4
f 20/29/32 19/27/31 8/8/43 6/11/44
s 1
f 17/24/36 20/28/35 6/6/45 5/93/46
s 3
f 7/7/41 18/102/25 22/100/47 21/30/48
s off
f 18/25/49 17/97/50 23/88/51 22/31/52
s 1
f 17/24/36 5/93/46 24/90/53 23/32/54
s 2
f 5/5/5 7/95/8 21/92/55 24/33/56
s 3
f 21/30/48 22/100/47 26/35/57 25/91/58
s 7
f 34/76/59 33/43/60 35/44/61 36/82/62
s 1
f 23/32/54 24/90/53 28/89/63 27/87/64
s 2
f 24/33/56 21/92/55 25/34/65 28/37/66
s off
f 22/31/67 23/88/68 29/80/69 30/38/70
s 1
f 23/32/54 27/87/64 31/85/71 29/39/72
s 6
f 27/36/39 26/86/38 32/83/73 31/40/74
s 3
f 26/35/57 22/100/47 30/98/75 32/41/76
s 1
f 29/39/72 31/85/71 35/84/77 33/78/78
s 6
f 31/40/74 32/83/73 36/82/79 35/44/80
s 3
f 32/41/76 30/98/75 34/42/81 36/45/82
s off
f 30/38/83 29/80/84 9/12/85 10/99/86
s 1
f 29/39/72 33/78/78 13/18/4 9/81/33
s 7
f 33/43/60 34/76/59 14/19/87 13/79/88
s 3
f 34/42/81 30/98/75 10/13/28 14/77/9
s 8
f 37/46/89 47/47/90 48/64/91 39/75/92
s 1
f 39/49/93 48/48/94 3/3/1 41/72/95
s off
f 41/50/96 3/73/97 1/71/98 43/58/99
s 3
f 43/51/100 1/9/12 47/52/101 37/53/102
s off
f 38/54/103 44/55/104 42/56/105 40/66/106
f 43/58/107 37/46/108 39/75/109 41/50/110
f 4/69/111 42/56/112 44/55/113 2/67/114
s 3
f 45/60/115 2/10/11 44/59/116 38/61/117
s 8
f 46/65/118 45/63/119 38/54/120 40/66/121
s 1
f 4/4/2 46/62/122 40/57/123 42/70/124
s 3
f 47/52/101 1/9/12 2/10/11 45/60/115
s 8
f 48/64/91 47/47/90 45/63/119 46/65/118
s 1
f 3/3/1 48/48/94 46/62/122 4/4/2
