# This file uses centimeters as units for non-parametric coordinates.

mtllib Symbol7.mtl
g default
v -0.543248 0.114768 0.675155
v -0.276581 0.114768 0.675155
v -0.543248 0.390817 0.675155
v -0.276581 0.390817 0.675155
v -0.558051 0.390817 -0.640890
v -0.291384 0.390817 -0.640890
v -0.558051 0.114768 -0.640890
v -0.291384 0.114768 -0.640890
v -0.487425 0.114768 0.786754
v -0.279669 0.114768 0.713864
v -0.279669 0.390817 0.713864
v -0.487425 0.390817 0.786754
v -0.401152 0.114768 0.874343
v -0.255401 0.114768 0.764494
v -0.255401 0.390817 0.764494
v -0.401152 0.390817 0.874343
v -0.274234 0.114768 0.947289
v -0.211070 0.114768 0.839212
v -0.211070 0.390817 0.839212
v -0.274234 0.390817 0.947289
v -0.157336 0.114768 0.974593
v -0.154340 0.114768 0.872710
v -0.154340 0.390817 0.872710
v -0.157336 0.390817 0.974593
v 0.105680 0.114768 0.971578
v 0.063037 0.114768 0.871268
v 0.063037 0.390817 0.871268
v 0.105680 0.390817 0.971578
v 0.184812 0.114768 0.927534
v 0.121869 0.114768 0.836718
v 0.121869 0.390817 0.836718
v 0.184812 0.390817 0.927534
v 0.268263 0.114768 0.885744
v 0.174769 0.114768 0.786452
v 0.174769 0.390817 0.786452
v 0.268263 0.390817 0.885744
v 0.325887 0.114768 0.822857
v 0.196080 0.114768 0.734013
v 0.196080 0.390817 0.734013
v 0.325887 0.390817 0.822857
v 0.390666 0.114768 0.745138
v 0.217737 0.114768 0.685445
v 0.217737 0.390817 0.685445
v 0.390666 0.390817 0.745138
v 0.432656 0.114768 0.611956
v 0.226895 0.114768 0.609092
v 0.226895 0.390817 0.609092
v 0.432656 0.390817 0.611956
v 0.506849 0.114768 -0.217285
v 0.295865 0.114768 -0.220150
v 0.295865 0.390817 -0.220150
v 0.506849 0.390817 -0.217285
v 0.538238 0.114768 -0.598061
v 0.373450 0.114768 -0.600099
v 0.373450 0.390817 -0.600099
v 0.538238 0.390817 -0.598061
v 0.553832 0.114768 -0.745753
v 0.493035 0.114768 -0.811449
v 0.493035 0.390817 -0.811449
v 0.553832 0.390817 -0.745753
v 0.582657 0.114768 -0.776131
v 0.582121 0.114768 -0.890187
v 0.582121 0.390817 -0.890187
v 0.582657 0.390817 -0.776131
v 0.642115 0.114768 -0.714862
v 0.640816 0.114768 -0.952103
v 0.640816 0.390817 -0.952103
v 0.642115 0.390817 -0.714862
v 0.701570 0.114768 -0.670791
v 0.699947 0.114768 -0.967271
v 0.699947 0.390817 -0.967271
v 0.701570 0.390817 -0.670791
v 0.770597 0.114768 -0.671169
v 0.768973 0.114768 -0.967649
v 0.768973 0.390817 -0.967649
v 0.770597 0.390817 -0.671169
v 0.824736 0.114768 -0.701783
v 0.823444 0.114768 -0.937629
v 0.823444 0.390817 -0.937629
v 0.824736 0.390817 -0.701783
v 0.883396 0.114768 -0.773299
v 0.882884 0.114768 -0.866761
v 0.882884 0.390817 -0.866761
v 0.883396 0.390817 -0.773299
v -0.596796 0.390817 -0.716793
v -0.362892 0.390817 -0.844857
v -0.362892 0.114768 -0.844857
v -0.596796 0.114768 -0.716793
v -0.630920 0.390817 -0.764655
v -0.497965 0.390817 -0.936758
v -0.497965 0.114768 -0.936758
v -0.630920 0.114768 -0.764655
v -0.672438 0.390817 -0.789355
v -0.669218 0.390817 -0.964332
v -0.669218 0.114768 -0.964332
v -0.672438 0.114768 -0.789355
v -0.738843 0.390817 -0.810242
v -0.783727 0.390817 -0.922955
v -0.783727 0.114768 -0.922955
v -0.738843 0.114768 -0.810242
v -0.775507 0.390817 -0.800794
v -0.847817 0.390817 -0.848682
v -0.847817 0.114768 -0.848682
v -0.775507 0.114768 -0.800794
v -0.811467 0.390817 -0.772541
v -0.880712 0.390817 -0.772966
v -0.880712 0.114768 -0.772966
v -0.811467 0.114768 -0.772541
v -0.820943 0.390817 -0.670750
v -0.872487 0.390817 -0.671067
v -0.872487 0.114768 -0.671067
v -0.820943 0.114768 -0.670750
vt 0.375000 0.000000
vt 0.625000 0.000000
vt 0.375000 0.250000
vt 0.625000 0.250000
vt 0.375000 0.500000
vt 0.625000 0.500000
vt 0.375000 0.750000
vt 0.625000 0.750000
vt 0.375000 1.000000
vt 0.625000 1.000000
vt 0.875000 0.000000
vt 0.875000 0.250000
vt 0.125000 0.000000
vt 0.125000 0.250000
vt 0.375000 0.000000
vt 0.625000 0.000000
vt 0.625000 0.250000
vt 0.375000 0.250000
vt 0.375000 0.000000
vt 0.625000 0.000000
vt 0.625000 0.250000
vt 0.375000 0.250000
vt 0.375000 0.000000
vt 0.625000 0.000000
vt 0.625000 0.250000
vt 0.375000 0.250000
vt 0.375000 0.000000
vt 0.625000 0.000000
vt 0.625000 0.250000
vt 0.375000 0.250000
vt 0.375000 0.000000
vt 0.625000 0.000000
vt 0.625000 0.250000
vt 0.375000 0.250000
vt 0.375000 0.000000
vt 0.625000 0.000000
vt 0.625000 0.250000
vt 0.375000 0.250000
vt 0.375000 0.000000
vt 0.625000 0.000000
vt 0.625000 0.250000
vt 0.375000 0.250000
vt 0.375000 0.000000
vt 0.625000 0.000000
vt 0.625000 0.250000
vt 0.375000 0.250000
vt 0.375000 0.000000
vt 0.625000 0.000000
vt 0.625000 0.250000
vt 0.375000 0.250000
vt 0.375000 0.000000
vt 0.625000 0.000000
vt 0.625000 0.250000
vt 0.375000 0.250000
vt 0.375000 0.000000
vt 0.625000 0.000000
vt 0.625000 0.250000
vt 0.375000 0.250000
vt 0.375000 0.000000
vt 0.625000 0.000000
vt 0.625000 0.250000
vt 0.375000 0.250000
vt 0.375000 0.000000
vt 0.625000 0.000000
vt 0.625000 0.250000
vt 0.375000 0.250000
vt 0.375000 0.000000
vt 0.625000 0.000000
vt 0.625000 0.250000
vt 0.375000 0.250000
vt 0.375000 0.000000
vt 0.625000 0.000000
vt 0.625000 0.250000
vt 0.375000 0.250000
vt 0.375000 0.000000
vt 0.625000 0.000000
vt 0.625000 0.250000
vt 0.375000 0.250000
vt 0.375000 0.000000
vt 0.625000 0.000000
vt 0.625000 0.250000
vt 0.375000 0.250000
vt 0.375000 0.000000
vt 0.625000 0.000000
vt 0.625000 0.250000
vt 0.375000 0.250000
vt 0.375000 0.000000
vt 0.625000 0.000000
vt 0.625000 0.250000
vt 0.375000 0.250000
vt 0.375000 0.500000
vt 0.625000 0.500000
vt 0.625000 0.750000
vt 0.375000 0.750000
vt 0.375000 0.500000
vt 0.625000 0.500000
vt 0.625000 0.750000
vt 0.375000 0.750000
vt 0.375000 0.500000
vt 0.625000 0.500000
vt 0.625000 0.750000
vt 0.375000 0.750000
vt 0.375000 0.500000
vt 0.625000 0.500000
vt 0.625000 0.750000
vt 0.375000 0.750000
vt 0.375000 0.500000
vt 0.625000 0.500000
vt 0.625000 0.750000
vt 0.375000 0.750000
vt 0.375000 0.500000
vt 0.625000 0.500000
vt 0.625000 0.750000
vt 0.375000 0.750000
vt 0.375000 0.500000
vt 0.625000 0.500000
vt 0.625000 0.750000
vt 0.375000 0.750000
vn 0.999985 0.000000 -0.005477
vn 0.999985 0.000000 -0.005477
vn 0.999985 0.000000 -0.005477
vn 0.999985 0.000000 -0.005477
vn 0.000000 1.000000 0.000000
vn 0.000000 1.000000 0.000000
vn 0.000000 1.000000 0.000000
vn 0.000000 1.000000 0.000000
vn -0.006134 0.000000 0.999981
vn -0.006134 0.000000 0.999981
vn -0.006134 0.000000 0.999981
vn -0.006134 0.000000 0.999981
vn 0.000000 -1.000000 0.000000
vn 0.000000 -1.000000 0.000000
vn 0.000000 -1.000000 0.000000
vn 0.000000 -1.000000 0.000000
vn 0.999963 0.000000 -0.008647
vn 0.998392 0.000000 -0.056691
vn 0.998392 0.000000 -0.056691
vn 0.999963 0.000000 -0.008647
vn -0.999937 0.000000 0.011248
vn -0.998779 0.000000 0.049410
vn -0.998779 0.000000 0.049410
vn -0.999937 0.000000 0.011248
vn 0.000000 -1.000000 0.000000
vn 0.000000 -1.000000 0.000000
vn 0.996833 0.000000 0.079520
vn 0.996833 0.000000 0.079520
vn 0.000000 1.000000 0.000000
vn 0.000000 1.000000 0.000000
vn -0.814083 0.000000 0.580749
vn -0.814083 0.000000 0.580749
vn 0.000000 -1.000000 0.000000
vn 0.000000 -1.000000 0.000000
vn 0.901764 0.000000 -0.432229
vn 0.901764 0.000000 -0.432229
vn 0.877225 0.000000 -0.480080
vn 0.877225 0.000000 -0.480080
vn 0.000000 1.000000 0.000000
vn 0.000000 1.000000 0.000000
vn -0.601536 0.000000 0.798846
vn -0.601536 0.000000 0.798846
vn 0.000000 -1.000000 0.000000
vn 0.000000 -1.000000 0.000000
vn 0.730855 0.000000 -0.682533
vn 0.730855 0.000000 -0.682533
vn 0.000000 1.000000 0.000000
vn 0.000000 1.000000 0.000000
vn -0.380280 0.000000 0.924872
vn -0.380280 0.000000 0.924872
vn 0.000000 -1.000000 0.000000
vn 0.000000 -1.000000 0.000000
vn 0.508465 0.000000 -0.861083
vn 0.508465 0.000000 -0.861083
vn 0.000000 1.000000 0.000000
vn 0.000000 1.000000 0.000000
vn -0.063804 0.000000 0.997962
vn -0.063804 0.000000 0.997962
vn 0.000000 -1.000000 0.000000
vn 0.000000 -1.000000 0.000000
vn -0.006636 0.000000 -0.999978
vn -0.006636 0.000000 -0.999978
vn -0.006636 0.000000 -0.999978
vn -0.006636 0.000000 -0.999978
vn 0.000000 1.000000 0.000000
vn 0.000000 1.000000 0.000000
vn 0.136258 0.000000 0.990673
vn 0.136258 0.000000 0.990673
vn 0.000000 -1.000000 0.000000
vn 0.000000 -1.000000 0.000000
vn -0.506402 0.000000 -0.862298
vn -0.506402 0.000000 -0.862298
vn -0.604627 0.000000 -0.796509
vn -0.604627 0.000000 -0.796509
vn 0.000000 1.000000 0.000000
vn 0.000000 1.000000 0.000000
vn 0.466872 0.000000 0.884325
vn 0.466872 0.000000 0.884325
vn 0.000000 -1.000000 0.000000
vn 0.000000 -1.000000 0.000000
vn -0.810548 0.000000 -0.585673
vn -0.810548 0.000000 -0.585673
vn 0.000000 1.000000 0.000000
vn 0.000000 1.000000 0.000000
vn 0.595874 0.000000 0.803078
vn 0.595874 0.000000 0.803078
vn 0.000000 -1.000000 0.000000
vn 0.000000 -1.000000 0.000000
vn -0.920202 0.000000 -0.391443
vn -0.920202 0.000000 -0.391443
vn 0.000000 1.000000 0.000000
vn 0.000000 1.000000 0.000000
vn 0.754242 0.000000 0.656596
vn 0.754242 0.000000 0.656596
vn 0.000000 -1.000000 0.000000
vn 0.000000 -1.000000 0.000000
vn -0.970896 0.000000 -0.239501
vn -0.970896 0.000000 -0.239501
vn 0.000000 1.000000 0.000000
vn 0.000000 1.000000 0.000000
vn 0.892185 0.000000 0.451671
vn 0.892185 0.000000 0.451671
vn 0.000000 -1.000000 0.000000
vn 0.000000 -1.000000 0.000000
vn -0.996299 0.000000 -0.085953
vn -0.996299 0.000000 -0.085953
vn 0.000000 1.000000 0.000000
vn 0.000000 1.000000 0.000000
vn 0.992792 0.000000 0.119849
vn 0.992792 0.000000 0.119849
vn 0.000000 -1.000000 0.000000
vn 0.000000 -1.000000 0.000000
vn -0.992735 0.000000 -0.120320
vn -0.992735 0.000000 -0.120320
vn 0.000000 1.000000 0.000000
vn 0.000000 1.000000 0.000000
vn 0.996215 0.000000 0.086926
vn 0.996215 0.000000 0.086926
vn 0.000000 -1.000000 0.000000
vn 0.000000 -1.000000 0.000000
vn -0.948649 0.000000 -0.316330
vn -0.948649 0.000000 -0.316330
vn 0.000000 1.000000 0.000000
vn 0.000000 1.000000 0.000000
vn 0.996071 0.000000 0.088554
vn 0.996071 0.000000 0.088554
vn 0.000000 -1.000000 0.000000
vn 0.000000 -1.000000 0.000000
vn -0.811788 0.000000 -0.583952
vn -0.811788 0.000000 -0.583952
vn 0.000000 1.000000 0.000000
vn 0.000000 1.000000 0.000000
vn 0.970269 0.000000 0.242030
vn 0.970269 0.000000 0.242030
vn 0.000000 -1.000000 0.000000
vn 0.000000 -1.000000 0.000000
vn -0.689426 0.000000 -0.724356
vn -0.689426 0.000000 -0.724356
vn 0.000000 1.000000 0.000000
vn 0.000000 1.000000 0.000000
vn 0.725409 0.000000 0.688318
vn 0.725409 0.000000 0.688318
vn 0.000000 -1.000000 0.000000
vn 0.000000 -1.000000 0.000000
vn -0.725736 0.000000 -0.687973
vn -0.725736 0.000000 -0.687973
vn 0.000000 1.000000 0.000000
vn 0.000000 1.000000 0.000000
vn -0.717629 0.000000 0.696425
vn -0.717629 0.000000 0.696425
vn -0.663094 0.000000 0.748536
vn -0.663094 0.000000 0.748536
vn 0.000000 -1.000000 0.000000
vn 0.000000 -1.000000 0.000000
vn -0.248467 0.000000 -0.968640
vn -0.248467 0.000000 -0.968640
vn -0.120418 0.000000 -0.992723
vn -0.120418 0.000000 -0.992723
vn 0.000000 1.000000 0.000000
vn 0.000000 1.000000 0.000000
vn -0.595493 0.000000 0.803361
vn -0.595493 0.000000 0.803361
vn 0.000000 -1.000000 0.000000
vn 0.000000 -1.000000 0.000000
vn 0.233393 0.000000 -0.972382
vn 0.233393 0.000000 -0.972382
vn 0.000000 1.000000 0.000000
vn 0.000000 1.000000 0.000000
vn 0.005477 0.000000 0.999985
vn 0.005477 0.000000 0.999985
vn 0.244026 0.000000 0.969769
vn 0.244026 0.000000 0.969769
vn 0.000000 -1.000000 0.000000
vn 0.000000 -1.000000 0.000000
vn 0.663022 0.000000 -0.748600
vn 0.663022 0.000000 -0.748600
vn 0.000000 1.000000 0.000000
vn 0.000000 1.000000 0.000000
vn 0.671181 0.000000 0.741293
vn 0.671181 0.000000 0.741293
vn 0.000000 -1.000000 0.000000
vn 0.000000 -1.000000 0.000000
vn 0.766184 0.000000 -0.642622
vn 0.766184 0.000000 -0.642622
vn 0.000000 1.000000 0.000000
vn 0.000000 1.000000 0.000000
vn 0.773177 0.000000 0.634190
vn 0.773177 0.000000 0.634190
vn 0.000000 1.000000 0.000000
vn 0.000000 1.000000 0.000000
vn 0.000000 1.000000 0.000000
vn 0.000000 1.000000 0.000000
vn 0.943687 0.000000 -0.330840
vn 0.943687 0.000000 -0.330840
vn 0.000000 -1.000000 0.000000
vn 0.000000 -1.000000 0.000000
vn 0.000000 -1.000000 0.000000
vn 0.000000 -1.000000 0.000000
vn -0.890674 0.000000 0.454642
vn -0.890674 0.000000 0.454642
vn -0.861735 0.000000 0.507358
vn -0.861735 0.000000 0.507358
vn 0.000000 1.000000 0.000000
vn 0.000000 1.000000 0.000000
vn 0.562523 0.000000 -0.826782
vn 0.562523 0.000000 -0.826782
vn 0.363365 0.000000 -0.931647
vn 0.363365 0.000000 -0.931647
vn 0.000000 -1.000000 0.000000
vn 0.000000 -1.000000 0.000000
vn -0.692261 0.000000 0.721647
vn -0.692261 0.000000 0.721647
vn 0.000000 1.000000 0.000000
vn 0.000000 1.000000 0.000000
vn -0.048248 0.000000 -0.998835
vn -0.048248 0.000000 -0.998835
vn 0.000000 -1.000000 0.000000
vn 0.000000 -1.000000 0.000000
vn -0.389110 0.000000 0.921191
vn -0.389110 0.000000 0.921191
vn 0.000000 1.000000 0.000000
vn 0.000000 1.000000 0.000000
vn -0.543536 0.000000 -0.839386
vn -0.543536 0.000000 -0.839386
vn 0.000000 -1.000000 0.000000
vn 0.000000 -1.000000 0.000000
vn -0.300041 0.000000 0.953926
vn -0.300041 0.000000 0.953926
vn 0.000000 1.000000 0.000000
vn 0.000000 1.000000 0.000000
vn -0.839738 0.000000 -0.542991
vn -0.839738 0.000000 -0.542991
vn 0.000000 -1.000000 0.000000
vn 0.000000 -1.000000 0.000000
vn 0.249522 0.000000 0.968369
vn 0.249522 0.000000 0.968369
vn 0.460730 0.000000 0.887540
vn 0.460730 0.000000 0.887540
vn 0.000000 1.000000 0.000000
vn 0.000000 1.000000 0.000000
vn -0.990492 0.000000 -0.137571
vn -0.990492 0.000000 -0.137571
vn 0.000000 -1.000000 0.000000
vn 0.000000 -1.000000 0.000000
vn 0.617801 0.000000 0.786335
vn 0.617801 0.000000 0.786335
vn 0.000000 1.000000 0.000000
vn 0.000000 1.000000 0.000000
vn -0.996758 0.000000 0.080460
vn -0.996758 0.000000 0.080460
vn 0.000000 -1.000000 0.000000
vn 0.000000 -1.000000 0.000000
vn 0.995695 0.000000 0.092689
vn 0.995695 0.000000 0.092689
vn 0.995695 0.000000 0.092689
vn 0.995695 0.000000 0.092689
s off
g IJ_Symbol
usemtl initialShadingGroup
f 81/87/1 82/88/2 83/89/3 84/90/4
s 1
f 3/3/5 4/4/6 6/6/7 5/5/8
s off
f 109/115/9 110/116/10 111/117/11 112/118/12
s 2
f 7/7/13 8/8/14 2/10/15 1/9/16
s 3
f 2/2/17 8/11/18 6/12/19 4/4/20
s 4
f 7/13/21 1/1/22 3/3/23 5/14/24
s 2
f 1/1/16 2/2/15 10/16/25 9/15/26
s 3
f 2/2/17 4/4/20 11/17/27 10/16/28
s 1
f 4/4/6 3/3/5 12/18/29 11/17/30
s 4
f 3/3/23 1/1/22 9/15/31 12/18/32
s 2
f 9/15/26 10/16/25 14/20/33 13/19/34
s 5
f 10/16/35 11/17/36 15/21/37 14/20/38
s 1
f 11/17/30 12/18/29 16/22/39 15/21/40
s 4
f 12/18/32 9/15/31 13/19/41 16/22/42
s 2
f 13/19/34 14/20/33 18/24/43 17/23/44
s 5
f 14/20/38 15/21/37 19/25/45 18/24/46
s 1
f 15/21/40 16/22/39 20/26/47 19/25/48
s 4
f 16/22/42 13/19/41 17/23/49 20/26/50
s 2
f 17/23/44 18/24/43 22/28/51 21/27/52
s 5
f 18/24/46 19/25/45 23/29/53 22/28/54
s 1
f 19/25/48 20/26/47 24/30/55 23/29/56
s 4
f 20/26/50 17/23/49 21/27/57 24/30/58
s 2
f 21/27/52 22/28/51 26/32/59 25/31/60
s off
f 22/28/61 23/29/62 27/33/63 26/32/64
s 1
f 23/29/56 24/30/55 28/34/65 27/33/66
s 4
f 24/30/58 21/27/57 25/31/67 28/34/68
s 2
f 25/31/60 26/32/59 30/36/69 29/35/70
s 6
f 26/32/71 27/33/72 31/37/73 30/36/74
s 1
f 27/33/66 28/34/65 32/38/75 31/37/76
s 4
f 28/34/68 25/31/67 29/35/77 32/38/78
s 2
f 29/35/70 30/36/69 34/40/79 33/39/80
s 6
f 30/36/74 31/37/73 35/41/81 34/40/82
s 1
f 31/37/76 32/38/75 36/42/83 35/41/84
s 4
f 32/38/78 29/35/77 33/39/85 36/42/86
s 2
f 33/39/80 34/40/79 38/44/87 37/43/88
s 6
f 34/40/82 35/41/81 39/45/89 38/44/90
s 1
f 35/41/84 36/42/83 40/46/91 39/45/92
s 4
f 36/42/86 33/39/85 37/43/93 40/46/94
s 2
f 37/43/88 38/44/87 42/48/95 41/47/96
s 6
f 38/44/90 39/45/89 43/49/97 42/48/98
s 1
f 39/45/92 40/46/91 44/50/99 43/49/100
s 4
f 40/46/94 37/43/93 41/47/101 44/50/102
s 2
f 41/47/96 42/48/95 46/52/103 45/51/104
s 6
f 42/48/98 43/49/97 47/53/105 46/52/106
s 1
f 43/49/100 44/50/99 48/54/107 47/53/108
s 4
f 44/50/102 41/47/101 45/51/109 48/54/110
s 2
f 45/51/104 46/52/103 50/56/111 49/55/112
s 6
f 46/52/106 47/53/105 51/57/113 50/56/114
s 1
f 47/53/108 48/54/107 52/58/115 51/57/116
s 4
f 48/54/110 45/51/109 49/55/117 52/58/118
s 2
f 49/55/112 50/56/111 54/60/119 53/59/120
s 6
f 50/56/114 51/57/113 55/61/121 54/60/122
s 1
f 51/57/116 52/58/115 56/62/123 55/61/124
s 4
f 52/58/118 49/55/117 53/59/125 56/62/126
s 2
f 53/59/120 54/60/119 58/64/127 57/63/128
s 6
f 54/60/122 55/61/121 59/65/129 58/64/130
s 1
f 55/61/124 56/62/123 60/66/131 59/65/132
s 4
f 56/62/126 53/59/125 57/63/133 60/66/134
s 2
f 57/63/128 58/64/127 62/68/135 61/67/136
s 6
f 58/64/130 59/65/129 63/69/137 62/68/138
s 1
f 59/65/132 60/66/131 64/70/139 63/69/140
s 4
f 60/66/134 57/63/133 61/67/141 64/70/142
s 2
f 61/67/136 62/68/135 66/72/143 65/71/144
s 6
f 62/68/138 63/69/137 67/73/145 66/72/146
s 1
f 63/69/140 64/70/139 68/74/147 67/73/148
s 7
f 64/70/149 61/67/150 65/71/151 68/74/152
s 2
f 65/71/144 66/72/143 70/76/153 69/75/154
s 8
f 66/72/155 67/73/156 71/77/157 70/76/158
s 1
f 67/73/148 68/74/147 72/78/159 71/77/160
s 7
f 68/74/152 65/71/151 69/75/161 72/78/162
s 2
f 69/75/154 70/76/153 74/80/163 73/79/164
s 8
f 70/76/158 71/77/157 75/81/165 74/80/166
s 1
f 71/77/160 72/78/159 76/82/167 75/81/168
s 9
f 72/78/169 69/75/170 73/79/171 76/82/172
s 2
f 73/79/164 74/80/163 78/84/173 77/83/174
s 8
f 74/80/166 75/81/165 79/85/175 78/84/176
s 1
f 75/81/168 76/82/167 80/86/177 79/85/178
s 9
f 76/82/172 73/79/171 77/83/179 80/86/180
s 2
f 77/83/174 78/84/173 82/88/181 81/87/182
s 8
f 78/84/176 79/85/175 83/89/183 82/88/184
s 1
f 79/85/178 80/86/177 84/90/185 83/89/186
s 9
f 80/86/180 77/83/179 81/87/187 84/90/188
s 10
f 5/5/189 6/6/190 86/92/191 85/91/192
s 3
f 6/6/19 8/8/18 87/93/193 86/92/194
s 11
f 8/8/195 7/7/196 88/94/197 87/93/198
s 12
f 7/7/199 5/5/200 85/91/201 88/94/202
s 10
f 85/91/192 86/92/191 90/96/203 89/95/204
s 13
f 86/92/205 87/93/206 91/97/207 90/96/208
s 11
f 87/93/198 88/94/197 92/98/209 91/97/210
s 12
f 88/94/202 85/91/201 89/95/211 92/98/212
s 10
f 89/95/204 90/96/203 94/100/213 93/99/214
s 13
f 90/96/208 91/97/207 95/101/215 94/100/216
s 11
f 91/97/210 92/98/209 96/102/217 95/101/218
s 12
f 92/98/212 89/95/211 93/99/219 96/102/220
s 10
f 93/99/214 94/100/213 98/104/221 97/103/222
s 13
f 94/100/216 95/101/215 99/105/223 98/104/224
s 11
f 95/101/218 96/102/217 100/106/225 99/105/226
s 12
f 96/102/220 93/99/219 97/103/227 100/106/228
s 10
f 97/103/222 98/104/221 102/108/229 101/107/230
s 13
f 98/104/224 99/105/223 103/109/231 102/108/232
s 11
f 99/105/226 100/106/225 104/110/233 103/109/234
s 14
f 100/106/235 97/103/236 101/107/237 104/110/238
s 10
f 101/107/230 102/108/229 106/112/239 105/111/240
s 13
f 102/108/232 103/109/231 107/113/241 106/112/242
s 11
f 103/109/234 104/110/233 108/114/243 107/113/244
s 14
f 104/110/238 101/107/237 105/111/245 108/114/246
s 10
f 105/111/240 106/112/239 110/116/247 109/115/248
s 13
f 106/112/242 107/113/241 111/117/249 110/116/250
s 11
f 107/113/244 108/114/243 112/118/251 111/117/252
s off
f 108/114/253 105/111/254 109/115/255 112/118/256
