# This file uses centimeters as units for non-parametric coordinates.

mtllib Hole.mtl
g default
v 3.088558 -0.026715 -0.758257
v 2.269772 -0.026715 -1.442291
v 1.442291 -0.026715 -1.985144
v 0.721132 -0.026715 -2.271801
v 0.000000 -0.026715 -2.330021
v -0.745882 -0.026715 -2.247050
v -1.825920 -0.026715 -1.836642
v -2.504898 -0.026715 -1.293790
v -2.952431 -0.026715 -0.609756
v -3.202087 -0.026715 -0.005219
v -2.966534 -0.026715 0.984574
v -2.596205 -0.026715 1.869950
v -2.059155 -0.026715 2.679252
v -1.186154 -0.026715 3.061957
v -0.000000 -0.026715 3.108306
v 0.940293 -0.026715 2.959378
v 1.788544 -0.026715 2.527172
v 2.486469 -0.026715 1.928248
v 3.091926 -0.026715 1.005746
v 3.290354 -0.026715 0.065453
v 3.088558 0.026715 -0.758257
v 2.269772 0.026715 -1.442291
v 1.442291 0.026715 -1.985144
v 0.721132 0.026715 -2.271801
v 0.000000 0.026715 -2.330021
v -0.745882 0.026715 -2.247050
v -1.825920 0.026715 -1.836642
v -2.504898 0.026715 -1.293790
v -2.952431 0.026715 -0.609756
v -3.202087 0.026715 -0.005219
v -2.966534 0.026715 0.984574
v -2.596205 0.026715 1.869950
v -2.059155 0.026715 2.679252
v -1.186154 0.026715 3.061957
v -0.000000 0.026715 3.108306
v 0.940293 0.026715 2.959378
v 1.788544 0.026715 2.527172
v 2.486469 0.026715 1.928248
v 3.091926 0.026715 1.005746
v 3.290354 0.026715 0.065453
v 0.000000 -0.026715 0.065453
v 0.000000 0.026715 0.065453
vt 0.343703 0.157288
vt 0.321510 0.113730
vt 0.286942 0.079163
vt 0.243385 0.056969
vt 0.195101 0.049322
vt 0.146817 0.056969
vt 0.103259 0.079163
vt 0.068692 0.113730
vt 0.046498 0.157288
vt 0.038851 0.205572
vt 0.046498 0.253856
vt 0.068692 0.297413
vt 0.103259 0.331981
vt 0.146817 0.354175
vt 0.195101 0.361822
vt 0.243385 0.354175
vt 0.286942 0.331981
vt 0.321510 0.297413
vt 0.343703 0.253856
vt 0.351351 0.205572
vt 0.070101 0.361822
vt 0.082601 0.361822
vt 0.095101 0.361822
vt 0.107601 0.361822
vt 0.120101 0.361822
vt 0.132601 0.361822
vt 0.145101 0.361822
vt 0.157601 0.361822
vt 0.170101 0.361822
vt 0.182601 0.361822
vt 0.195101 0.361822
vt 0.207601 0.361822
vt 0.220100 0.361822
vt 0.232600 0.361822
vt 0.245100 0.361822
vt 0.257600 0.361822
vt 0.270100 0.361822
vt 0.282600 0.361822
vt 0.295100 0.361822
vt 0.307600 0.361822
vt 0.320100 0.361822
vt 0.070101 0.737762
vt 0.082601 0.737762
vt 0.095101 0.737762
vt 0.107601 0.737762
vt 0.120101 0.737762
vt 0.132601 0.737762
vt 0.145101 0.737762
vt 0.157601 0.737762
vt 0.170101 0.737762
vt 0.182601 0.737762
vt 0.195101 0.737762
vt 0.207601 0.737762
vt 0.220100 0.737762
vt 0.232600 0.737762
vt 0.245100 0.737762
vt 0.257600 0.737762
vt 0.270100 0.737762
vt 0.282600 0.737762
vt 0.295100 0.737762
vt 0.307600 0.737762
vt 0.320100 0.737762
vt 0.944516 0.519614
vt 0.890764 0.439769
vt 0.829277 0.388242
vt 0.754849 0.351410
vt 0.672682 0.339381
vt 0.569269 0.344636
vt 0.493515 0.378908
vt 0.447498 0.450046
vt 0.416102 0.527650
vt 0.396567 0.614223
vt 0.418960 0.666697
vt 0.458694 0.725904
vt 0.518471 0.772559
vt 0.613095 0.807252
vt 0.678237 0.813727
vt 0.741077 0.807912
vt 0.803686 0.782173
vt 0.875306 0.733978
vt 0.946025 0.673479
vt 0.962784 0.601426
vt 0.195101 0.199322
vt 0.675790 0.604787
vn 0.828121 0.000000 -0.560549
vn 0.597561 0.000000 -0.801823
vn 0.597561 0.000000 -0.801823
vn 0.828121 0.000000 -0.560549
vn 0.472169 0.000000 -0.881508
vn 0.472169 0.000000 -0.881508
vn 0.232562 0.000000 -0.972582
vn 0.232562 0.000000 -0.972582
vn -0.016869 0.000000 -0.999858
vn -0.016869 0.000000 -0.999858
vn -0.260854 0.000000 -0.965378
vn -0.260854 0.000000 -0.965378
vn -0.476461 0.000000 -0.879196
vn -0.476461 0.000000 -0.879196
vn -0.736596 0.000000 -0.676333
vn -0.736596 0.000000 -0.676333
vn -0.879517 0.000000 -0.475868
vn -0.879517 0.000000 -0.475868
vn -0.999961 0.000000 -0.008845
vn -0.999961 0.000000 -0.008845
vn -0.951562 0.000000 0.307458
vn -0.951562 0.000000 0.307458
vn -0.881585 0.000000 0.472026
vn -0.881585 0.000000 0.472026
vn -0.645591 0.000000 0.763684
vn -0.645591 0.000000 0.763684
vn -0.203983 0.000000 0.978974
vn -0.203983 0.000000 0.978974
vn 0.048184 0.000000 0.998839
vn 0.048184 0.000000 0.998839
vn 0.309017 0.000000 0.951056
vn 0.309017 0.000000 0.951056
vn 0.554829 0.000000 0.831964
vn 0.554829 0.000000 0.831964
vn 0.759428 0.000000 0.650591
vn 0.759428 0.000000 0.650591
vn 0.918153 0.000000 0.396227
vn 0.918153 0.000000 0.396227
vn 0.999998 0.000000 -0.001909
vn 0.999998 0.000000 -0.001909
vn 0.000000 -1.000000 -0.000000
vn 0.000000 -1.000000 0.000000
vn 0.000000 -1.000000 -0.000000
vn 0.000000 -1.000000 -0.000000
vn 0.000000 -1.000000 0.000000
vn 0.000000 -1.000000 -0.000000
vn 0.000000 -1.000000 0.000000
vn 0.000000 -1.000000 0.000000
vn 0.000000 -1.000000 0.000000
vn 0.000000 -1.000000 0.000000
vn 0.000000 -1.000000 0.000000
vn 0.000000 -1.000000 0.000000
vn 0.000000 -1.000000 -0.000000
vn 0.000000 -1.000000 -0.000000
vn 0.000000 -1.000000 -0.000000
vn 0.000000 -1.000000 0.000000
vn 0.000000 -1.000000 0.000000
vn 0.000000 -1.000000 0.000000
vn 0.000000 -1.000000 0.000000
vn 0.000000 -1.000000 0.000000
vn 0.000000 -1.000000 0.000000
vn 0.000000 1.000000 0.000000
vn 0.000000 1.000000 0.000000
vn 0.000000 1.000000 0.000000
vn 0.000000 1.000000 0.000000
vn 0.000000 1.000000 0.000000
vn 0.000000 1.000000 0.000000
vn 0.000000 1.000000 0.000000
vn 0.000000 1.000000 0.000000
vn 0.000000 1.000000 0.000000
vn 0.000000 1.000000 0.000000
vn 0.000000 1.000000 0.000000
vn 0.000000 1.000000 0.000000
vn 0.000000 1.000000 0.000000
vn 0.000000 1.000000 -0.000000
vn 0.000000 1.000000 -0.000000
vn 0.000000 1.000000 0.000000
vn 0.000000 1.000000 -0.000000
vn 0.000000 1.000000 -0.000000
vn 0.000000 1.000000 0.000000
vn 0.000000 1.000000 0.000000
vn 0.000000 1.000000 0.000000
s 1
g pCylinder1
usemtl lambert2SG
f 1/21/1 2/22/2 22/43/3 21/42/4
f 2/22/2 3/23/5 23/44/6 22/43/3
f 3/23/5 4/24/7 24/45/8 23/44/6
f 4/24/7 5/25/9 25/46/10 24/45/8
f 5/25/9 6/26/11 26/47/12 25/46/10
f 6/26/11 7/27/13 27/48/14 26/47/12
f 7/27/13 8/28/15 28/49/16 27/48/14
f 8/28/15 9/29/17 29/50/18 28/49/16
f 9/29/17 10/30/19 30/51/20 29/50/18
f 10/30/19 11/31/21 31/52/22 30/51/20
f 11/31/21 12/32/23 32/53/24 31/52/22
f 12/32/23 13/33/25 33/54/26 32/53/24
f 13/33/25 14/34/27 34/55/28 33/54/26
f 14/34/27 15/35/29 35/56/30 34/55/28
f 15/35/29 16/36/31 36/57/32 35/56/30
f 16/36/31 17/37/33 37/58/34 36/57/32
f 17/37/33 18/38/35 38/59/36 37/58/34
f 18/38/35 19/39/37 39/60/38 38/59/36
f 19/39/37 20/40/39 40/61/40 39/60/38
f 20/40/39 1/41/1 21/62/4 40/61/40
s 2
f 2/2/41 1/1/42 41/83/43
f 3/3/44 2/2/41 41/83/43
f 4/4/45 3/3/44 41/83/43
f 5/5/46 4/4/45 41/83/43
f 6/6/47 5/5/46 41/83/43
f 7/7/48 6/6/47 41/83/43
f 8/8/49 7/7/48 41/83/43
f 9/9/50 8/8/49 41/83/43
f 10/10/51 9/9/50 41/83/43
f 11/11/52 10/10/51 41/83/43
f 12/12/53 11/11/52 41/83/43
f 13/13/54 12/12/53 41/83/43
f 14/14/55 13/13/54 41/83/43
f 15/15/56 14/14/55 41/83/43
f 16/16/57 15/15/56 41/83/43
f 17/17/58 16/16/57 41/83/43
f 18/18/59 17/17/58 41/83/43
f 19/19/60 18/18/59 41/83/43
f 20/20/61 19/19/60 41/83/43
f 1/1/42 20/20/61 41/83/43
s 3
f 21/81/62 22/80/63 42/84/64
f 22/80/63 23/79/65 42/84/64
f 23/79/65 24/78/66 42/84/64
f 24/78/66 25/77/67 42/84/64
f 25/77/67 26/76/68 42/84/64
f 26/76/68 27/75/69 42/84/64
f 27/75/69 28/74/70 42/84/64
f 28/74/70 29/73/71 42/84/64
f 29/73/71 30/72/72 42/84/64
f 30/72/72 31/71/73 42/84/64
f 31/71/73 32/70/74 42/84/64
f 32/70/74 33/69/75 42/84/64
f 33/69/75 34/68/76 42/84/64
f 34/68/76 35/67/77 42/84/64
f 35/67/77 36/66/78 42/84/64
f 36/66/78 37/65/79 42/84/64
f 37/65/79 38/64/80 42/84/64
f 38/64/80 39/63/81 42/84/64
f 39/63/81 40/82/82 42/84/64
f 40/82/82 21/81/62 42/84/64
